  0
SECTION
  2
HEADER
  9
$ACADVER
  1
AC1014
  9
$ACADMAINTVER
 70
     9
  9
$DWGCODEPAGE
  3
ANSI_1252
  9
$INSBASE
 10
0.0
 20
0.0
 30
0.0
  9
$EXTMIN
 10
1.000000000000000E+20
 20
1.000000000000000E+20
 30
1.000000000000000E+20
  9
$EXTMAX
 10
-1.000000000000000E+20
 20
-1.000000000000000E+20
 30
-1.000000000000000E+20
  9
$LIMMIN
 10
0.0
 20
0.0
  9
$LIMMAX
 10
12.0
 20
9.0
  9
$ORTHOMODE
 70
     0
  9
$REGENMODE
 70
     1
  9
$FILLMODE
 70
     1
  9
$QTEXTMODE
 70
     0
  9
$MIRRTEXT
 70
     1
  9
$DRAGMODE
 70
     2
  9
$LTSCALE
 40
1.0
  9
$OSMODE
 70
    37
  9
$ATTMODE
 70
     1
  9
$TEXTSIZE
 40
0.2
  9
$TRACEWID
 40
0.05
  9
$TEXTSTYLE
  7
STANDARD
  9
$CLAYER
  8
0
  9
$CELTYPE
  6
BYLAYER
  9
$CECOLOR
 62
   256
  9
$CELTSCALE
 40
1.0
  9
$DELOBJ
 70
     1
  9
$DISPSILH
 70
     0
  9
$DIMSCALE
 40
1.0
  9
$DIMASZ
 40
0.18
  9
$DIMEXO
 40
0.0625
  9
$DIMDLI
 40
0.38
  9
$DIMRND
 40
0.0
  9
$DIMDLE
 40
0.0
  9
$DIMEXE
 40
0.18
  9
$DIMTP
 40
0.0
  9
$DIMTM
 40
0.0
  9
$DIMTXT
 40
0.18
  9
$DIMCEN
 40
0.09
  9
$DIMTSZ
 40
0.0
  9
$DIMTOL
 70
     0
  9
$DIMLIM
 70
     0
  9
$DIMTIH
 70
     1
  9
$DIMTOH
 70
     1
  9
$DIMSE1
 70
     0
  9
$DIMSE2
 70
     0
  9
$DIMTAD
 70
     0
  9
$DIMZIN
 70
     0
  9
$DIMBLK
  1

  9
$DIMASO
 70
     1
  9
$DIMSHO
 70
     1
  9
$DIMPOST
  1

  9
$DIMAPOST
  1

  9
$DIMALT
 70
     0
  9
$DIMALTD
 70
     2
  9
$DIMALTF
 40
25.4
  9
$DIMLFAC
 40
1.0
  9
$DIMTOFL
 70
     0
  9
$DIMTVP
 40
0.0
  9
$DIMTIX
 70
     0
  9
$DIMSOXD
 70
     0
  9
$DIMSAH
 70
     0
  9
$DIMBLK1
  1

  9
$DIMBLK2
  1

  9
$DIMSTYLE
  2
STANDARD
  9
$DIMCLRD
 70
     0
  9
$DIMCLRE
 70
     0
  9
$DIMCLRT
 70
     0
  9
$DIMTFAC
 40
1.0
  9
$DIMGAP
 40
0.09
  9
$DIMJUST
 70
     0
  9
$DIMSD1
 70
     0
  9
$DIMSD2
 70
     0
  9
$DIMTOLJ
 70
     1
  9
$DIMTZIN
 70
     0
  9
$DIMALTZ
 70
     0
  9
$DIMALTTZ
 70
     0
  9
$DIMFIT
 70
     3
  9
$DIMUPT
 70
     0
  9
$DIMUNIT
 70
     2
  9
$DIMDEC
 70
     4
  9
$DIMTDEC
 70
     4
  9
$DIMALTU
 70
     2
  9
$DIMALTTD
 70
     2
  9
$DIMTXSTY
  7
STANDARD
  9
$DIMAUNIT
 70
     0
  9
$LUNITS
 70
     2
  9
$LUPREC
 70
     4
  9
$SKETCHINC
 40
0.1
  9
$FILLETRAD
 40
0.5
  9
$AUNITS
 70
     0
  9
$AUPREC
 70
     0
  9
$MENU
  1
.
  9
$ELEVATION
 40
0.0
  9
$PELEVATION
 40
0.0
  9
$THICKNESS
 40
0.0
  9
$LIMCHECK
 70
     0
  9
$CHAMFERA
 40
0.0
  9
$CHAMFERB
 40
0.0
  9
$CHAMFERC
 40
0.0
  9
$CHAMFERD
 40
0.0
  9
$SKPOLY
 70
     0
  9
$TDCREATE
 40
2456986.613994827
  9
$TDUPDATE
 40
2456986.613995011
  9
$TDINDWG
 40
0.0000000116
  9
$TDUSRTIMER
 40
0.0000000116
  9
$USRTIMER
 70
     1
  9
$ANGBASE
 50
0.0
  9
$ANGDIR
 70
     0
  9
$PDMODE
 70
     0
  9
$PDSIZE
 40
0.0
  9
$PLINEWID
 40
0.0
  9
$COORDS
 70
     1
  9
$SPLFRAME
 70
     0
  9
$SPLINETYPE
 70
     6
  9
$SPLINESEGS
 70
     8
  9
$ATTDIA
 70
     0
  9
$ATTREQ
 70
     1
  9
$HANDLING
 70
     1
  9
$HANDSEED
  5
217
  9
$SURFTAB1
 70
     6
  9
$SURFTAB2
 70
     6
  9
$SURFTYPE
 70
     6
  9
$SURFU
 70
     6
  9
$SURFV
 70
     6
  9
$UCSNAME
  2

  9
$UCSORG
 10
0.0
 20
0.0
 30
0.0
  9
$UCSXDIR
 10
1.0
 20
0.0
 30
0.0
  9
$UCSYDIR
 10
0.0
 20
1.0
 30
0.0
  9
$PUCSNAME
  2

  9
$PUCSORG
 10
0.0
 20
0.0
 30
0.0
  9
$PUCSXDIR
 10
1.0
 20
0.0
 30
0.0
  9
$PUCSYDIR
 10
0.0
 20
1.0
 30
0.0
  9
$USERI1
 70
     0
  9
$USERI2
 70
     0
  9
$USERI3
 70
     0
  9
$USERI4
 70
     0
  9
$USERI5
 70
     0
  9
$USERR1
 40
0.0
  9
$USERR2
 40
0.0
  9
$USERR3
 40
0.0
  9
$USERR4
 40
0.0
  9
$USERR5
 40
0.0
  9
$WORLDVIEW
 70
     1
  9
$SHADEDGE
 70
     3
  9
$SHADEDIF
 70
    70
  9
$TILEMODE
 70
     1
  9
$MAXACTVP
 70
    64
  9
$PINSBASE
 10
0.0
 20
0.0
 30
0.0
  9
$PLIMCHECK
 70
     0
  9
$PEXTMIN
 10
1.000000000000000E+20
 20
1.000000000000000E+20
 30
1.000000000000000E+20
  9
$PEXTMAX
 10
-1.000000000000000E+20
 20
-1.000000000000000E+20
 30
-1.000000000000000E+20
  9
$PLIMMIN
 10
0.0
 20
0.0
  9
$PLIMMAX
 10
12.0
 20
9.0
  9
$UNITMODE
 70
     0
  9
$VISRETAIN
 70
     1
  9
$PLINEGEN
 70
     0
  9
$PSLTSCALE
 70
     1
  9
$TREEDEPTH
 70
  3020
  9
$PICKSTYLE
 70
     1
  9
$CMLSTYLE
  2
STANDARD
  9
$CMLJUST
 70
     0
  9
$CMLSCALE
 40
1.0
  9
$PROXYGRAPHICS
 70
     1
  9
$MEASUREMENT
 70
     1
  0
ENDSEC
  0
SECTION
  2
CLASSES
  0
CLASS
  1
ACDBDICTIONARYWDFLT
  2
AcDbDictionaryWithDefault
  3
ObjectDBX Classes
 90
        0
280
     0
281
     0
  0
CLASS
  1
VISUALSTYLE
  2
AcDbVisualStyle
  3
ObjectDBX Classes
 90
     4095
280
     0
281
     0
  0
CLASS
  1
MATERIAL
  2
AcDbMaterial
  3
ObjectDBX Classes
 90
     1153
280
     0
281
     0
  0
CLASS
  1
SCALE
  2
AcDbScale
  3
ObjectDBX Classes
 90
     1153
280
     0
281
     0
  0
CLASS
  1
SUN
  2
AcDbSun
  3
SCENEOE
 90
     1153
280
     0
281
     0
  0
CLASS
  1
DICTIONARYVAR
  2
AcDbDictionaryVar
  3
ObjectDBX Classes
 90
        0
280
     0
281
     0
  0
CLASS
  1
XRECORD
  2
AcDbXrecord
  3
ObjectDBX Classes
 90
        0
280
     0
281
     0
  0
CLASS
  1
LWPOLYLINE
  2
AcDbPolyline
  3
ObjectDBX Classes
 90
        0
280
     0
281
     1
  0
CLASS
  1
HATCH
  2
AcDbHatch
  3
ObjectDBX Classes
 90
        0
280
     0
281
     1
  0
CLASS
  1
ACDBPLACEHOLDER
  2
AcDbPlaceHolder
  3
ObjectDBX Classes
 90
        0
280
     0
281
     0
  0
CLASS
  1
LAYOUT
  2
AcDbLayout
  3
ObjectDBX Classes
 90
        0
280
     0
281
     0
  0
ENDSEC
  0
SECTION
  2
TABLES
  0
TABLE
  2
VPORT
  5
8
102
{ACAD_XDICTIONARY
360
20D
102
}
330
0
100
AcDbSymbolTable
 70
     1
  0
VPORT
  5
29
330
8
100
AcDbSymbolTableRecord
100
AcDbViewportTableRecord
  2
*ACTIVE
 70
     0
 10
0.0
 20
0.0
 11
1.0
 21
1.0
 12
0.0
 22
0.0
 13
0.0
 23
0.0
 14
0.5
 24
0.5
 15
0.5
 25
0.5
 16
0.0
 26
0.0
 36
1.0
 17
0.0
 27
0.0
 37
-1000.0
 40
45.17145313234207
 41
2.146478873239437
 42
50.0
 43
66.93126241890687
 44
109.744876289775
 50
0.0
 51
0.0
 71
     0
 72
   100
 73
     1
 74
     3
 75
     0
 76
     0
 77
     0
 78
     0
  0
ENDTAB
  0
TABLE
  2
LTYPE
  5
5
330
0
100
AcDbSymbolTable
 70
     1
  0
LTYPE
  5
14
330
5
100
AcDbSymbolTableRecord
100
AcDbLinetypeTableRecord
  2
BYBLOCK
 70
     0
  3

 72
    65
 73
     0
 40
0.0
  0
LTYPE
  5
15
330
5
100
AcDbSymbolTableRecord
100
AcDbLinetypeTableRecord
  2
BYLAYER
 70
     0
  3

 72
    65
 73
     0
 40
0.0
  0
LTYPE
  5
16
330
5
100
AcDbSymbolTableRecord
100
AcDbLinetypeTableRecord
  2
CONTINUOUS
 70
     0
  3
Solid line
 72
    65
 73
     0
 40
0.0
  0
ENDTAB
  0
TABLE
  2
LAYER
  5
2
330
0
100
AcDbSymbolTable
 70
     3
  0
LAYER
  5
10
330
2
100
AcDbSymbolTableRecord
100
AcDbLayerTableRecord
  2
0
 70
     0
 62
     7
  6
CONTINUOUS
  0
LAYER
  5
6A
330
2
100
AcDbSymbolTableRecord
100
AcDbLayerTableRecord
  2
PROFILEEDGES
 70
     0
 62
     7
  6
CONTINUOUS
  0
LAYER
  5
6B
330
2
100
AcDbSymbolTableRecord
100
AcDbLayerTableRecord
  2
SECTIONCUTEDGES
 70
     0
 62
     7
  6
CONTINUOUS
  0
ENDTAB
  0
TABLE
  2
STYLE
  5
3
330
0
100
AcDbSymbolTable
 70
     1
  0
STYLE
  5
11
330
3
100
AcDbSymbolTableRecord
100
AcDbTextStyleTableRecord
  2
STANDARD
 70
     0
 40
0.0
 41
1.0
 50
0.0
 71
     0
 42
0.2
  3
txt
  4

  0
ENDTAB
  0
TABLE
  2
VIEW
  5
6
330
0
100
AcDbSymbolTable
 70
     0
  0
ENDTAB
  0
TABLE
  2
UCS
  5
7
330
0
100
AcDbSymbolTable
 70
     0
  0
ENDTAB
  0
TABLE
  2
APPID
  5
9
330
0
100
AcDbSymbolTable
 70
     1
  0
APPID
  5
12
330
9
100
AcDbSymbolTableRecord
100
AcDbRegAppTableRecord
  2
ACAD
 70
     0
  0
ENDTAB
  0
TABLE
  2
DIMSTYLE
  5
A
330
0
100
AcDbSymbolTable
 70
     1
  0
DIMSTYLE
105
27
330
A
100
AcDbSymbolTableRecord
100
AcDbDimStyleTableRecord
  2
STANDARD
 70
     0
  3

  4

  5

  6

  7

 40
1.0
 41
0.18
 42
0.0625
 43
0.38
 44
0.18
 45
0.0
 46
0.0
 47
0.0
 48
0.0
140
0.18
141
0.09
142
0.0
143
25.4
144
1.0
145
0.0
146
1.0
147
0.09
 71
     0
 72
     0
 73
     1
 74
     1
 75
     0
 76
     0
 77
     0
 78
     0
170
     0
171
     2
172
     0
173
     0
174
     0
175
     0
176
     0
177
     0
178
     0
270
     2
271
     4
272
     4
273
     2
274
     2
340
11
275
     0
280
     0
281
     0
282
     0
283
     1
284
     0
285
     0
286
     0
287
     3
288
     0
  0
ENDTAB
  0
TABLE
  2
BLOCK_RECORD
  5
1
330
0
100
AcDbSymbolTable
 70
     1
  0
BLOCK_RECORD
  5
1F
330
1
100
AcDbSymbolTableRecord
100
AcDbBlockTableRecord
  2
*MODEL_SPACE
  0
BLOCK_RECORD
  5
1B
330
1
100
AcDbSymbolTableRecord
100
AcDbBlockTableRecord
  2
*PAPER_SPACE
  0
ENDTAB
  0
ENDSEC
  0
SECTION
  2
BLOCKS
  0
BLOCK
  5
20
330
1F
100
AcDbEntity
  8
0
100
AcDbBlockBegin
  2
*MODEL_SPACE
 70
     0
 10
0.0
 20
0.0
 30
0.0
  3
*MODEL_SPACE
  1

  0
ENDBLK
  5
21
330
1F
100
AcDbEntity
  8
0
100
AcDbBlockEnd
  0
BLOCK
  5
1C
330
1B
100
AcDbEntity
 67
     1
  8
0
100
AcDbBlockBegin
  2
*PAPER_SPACE
 70
     0
 10
0.0
 20
0.0
 30
0.0
  3
*PAPER_SPACE
  1

  0
ENDBLK
  5
1D
330
1B
100
AcDbEntity
 67
     1
  8
0
100
AcDbBlockEnd
  0
ENDSEC
  0
SECTION
  2
ENTITIES
  0
LINE
  5
6C
330
1F
100
AcDbEntity
  8
0
100
AcDbLine
 10
-22.44362443977095
 20
14.85346187300353
 30
0.0
 11
-22.83971360963832
 21
15.31462614754566
 31
0.0
  0
LINE
  5
6D
330
1F
100
AcDbEntity
  8
0
100
AcDbLine
 10
-36.39201775691316
 20
3.42881085450873
 30
0.0
 11
-36.55214593326422
 21
4.708210560359759
 31
0.0
  0
LINE
  5
6E
330
1F
100
AcDbEntity
  8
0
100
AcDbLine
 10
-35.17466973370678
 20
-0.0294969532425254
 30
0.0
 11
-35.72810629463112
 21
1.15324466077274
 31
0.0
  0
LINE
  5
6F
330
1F
100
AcDbEntity
  8
0
100
AcDbLine
 10
-35.72810629463112
 20
1.15324466077274
 30
0.0
 11
-36.14119175641794
 21
2.271378582230307
 31
0.0
  0
LINE
  5
70
330
1F
100
AcDbEntity
  8
0
100
AcDbLine
 10
-34.47915075744334
 20
-1.174618128565361
 30
0.0
 11
-35.17466973370678
 21
-0.0294969532425254
 31
0.0
  0
LINE
  5
71
330
1F
100
AcDbEntity
  8
0
100
AcDbLine
 10
-27.16267592918899
 20
-4.466327609541541
 30
0.0
 11
-26.48655516478946
 21
-4.173512201679815
 31
0.0
  0
LINE
  5
72
330
1F
100
AcDbEntity
  8
0
100
AcDbLine
 10
-20.22431651312151
 20
17.56095941050486
 30
0.0
 11
-19.82822770085836
 21
17.09979513185011
 31
0.0
  0
LINE
  5
73
330
1F
100
AcDbEntity
  8
0
100
AcDbLine
 10
-23.05418800618708
 20
15.88345018230053
 30
0.0
 11
-23.06117898196188
 21
16.49132395400861
 31
0.0
  0
LINE
  5
74
330
1F
100
AcDbEntity
  8
0
100
AcDbLine
 10
-22.83971360963832
 20
15.31462614754566
 30
0.0
 11
-23.05418800618708
 21
15.88345018230053
 31
0.0
  0
LINE
  5
75
330
1F
100
AcDbEntity
  8
0
100
AcDbLine
 10
-21.91369470146101
 20
14.55557829418632
 30
0.0
 11
-22.44362443977095
 21
14.85346187300353
 31
0.0
  0
LINE
  5
76
330
1F
100
AcDbEntity
  8
0
100
AcDbLine
 10
-21.31384177995426
 20
14.45690676239398
 30
0.0
 11
-21.91369470146101
 21
14.55557829418632
 31
0.0
  0
LINE
  5
77
330
1F
100
AcDbEntity
  8
0
100
AcDbLine
 10
-35.9859334707624
 20
9.17170874766464
 30
0.0
 11
-35.40307516979385
 21
10.69141708083997
 31
0.0
  0
LINE
  5
78
330
1F
100
AcDbEntity
  8
0
100
AcDbLine
 10
-36.57939469676253
 20
5.947393361634046
 30
0.0
 11
-36.50517225710623
 21
7.006349913108584
 31
0.0
  0
LINE
  5
79
330
1F
100
AcDbEntity
  8
0
100
AcDbLine
 10
-36.55214593326422
 20
4.708210560359759
 30
0.0
 11
-36.57939469676253
 21
5.947393361634046
 31
0.0
  0
LINE
  5
7A
330
1F
100
AcDbEntity
  8
0
100
AcDbLine
 10
-20.75424606166233
 20
17.85884203776714
 30
0.0
 11
-20.22431651312151
 21
17.56095941050486
 31
0.0
  0
LINE
  5
7B
330
1F
100
AcDbEntity
  8
0
100
AcDbLine
 10
-21.35410027555123
 20
17.95751450843381
 30
0.0
 11
-20.75424606166233
 21
17.85884203776714
 31
0.0
  0
LINE
  5
7C
330
1F
100
AcDbEntity
  8
0
100
AcDbLine
 10
-19.82822770085836
 20
17.09979513185011
 30
0.0
 11
-19.61375352077839
 21
16.53096918713097
 31
0.0
  0
LINE
  5
7D
330
1F
100
AcDbEntity
  8
0
100
AcDbLine
 10
-36.14119175641794
 20
2.271378582230307
 30
0.0
 11
-36.39201775691316
 21
3.42881085450873
 31
0.0
  0
LINE
  5
7E
330
1F
100
AcDbEntity
  8
0
100
AcDbLine
 10
-36.29378427080238
 20
8.026578996164234
 30
0.0
 11
-35.9859334707624
 21
9.17170874766464
 31
0.0
  0
LINE
  5
7F
330
1F
100
AcDbEntity
  8
0
100
AcDbLine
 10
-35.40307516979385
 20
10.69141708083997
 30
0.0
 11
-34.52401481663498
 21
12.61335052622307
 31
0.0
  0
LINE
  5
80
330
1F
100
AcDbEntity
  8
0
100
AcDbLine
 10
-36.50517225710623
 20
7.006349913108584
 30
0.0
 11
-36.29378427080238
 21
8.026578996164234
 31
0.0
  0
LINE
  5
81
330
1F
100
AcDbEntity
  8
0
100
AcDbLine
 10
-23.99919363857032
 20
6.364146622100942
 30
0.0
 11
-23.60738212120001
 21
5.216976615421404
 31
0.0
  0
LINE
  5
82
330
1F
100
AcDbEntity
  8
0
100
AcDbLine
 10
-25.87610728208283
 20
13.47145433994657
 30
0.0
 11
-26.47852818273345
 21
14.0302641341855
 31
0.0
  0
LINE
  5
83
330
1F
100
AcDbEntity
  8
0
100
AcDbLine
 10
-23.34600581215292
 20
12.65689477656284
 30
0.0
 11
-23.2030060741795
 21
11.73867871624698
 31
0.0
  0
LINE
  5
84
330
1F
100
AcDbEntity
  8
0
100
AcDbLine
 10
-24.53446949237769
 20
-2.04493350436494
 30
0.0
 11
-24.93622243908969
 21
-2.661382119652755
 31
0.0
  0
LINE
  5
85
330
1F
100
AcDbEntity
  8
0
100
AcDbLine
 10
-21.36283541912297
 20
20.97035055225462
 30
0.0
 11
-21.70313283708228
 21
20.64262022867349
 31
0.0
  0
LINE
  5
86
330
1F
100
AcDbEntity
  8
0
100
AcDbLine
 10
-23.85229550180729
 20
-0.4002630811045776
 30
0.0
 11
-24.18599766839587
 21
-1.300970661682946
 31
0.0
  0
LINE
  5
87
330
1F
100
AcDbEntity
  8
0
100
AcDbLine
 10
-23.54570261172809
 20
13.49825517513622
 30
0.0
 11
-23.34600581215292
 21
12.65689477656284
 31
0.0
  0
LINE
  5
88
330
1F
100
AcDbEntity
  8
0
100
AcDbLine
 10
-17.35182922579092
 20
8.677738309476442
 30
0.0
 11
-16.718628028077
 21
9.573243697652767
 31
0.0
  0
LINE
  5
89
330
1F
100
AcDbEntity
  8
0
100
AcDbLine
 10
-18.74592748970433
 20
5.09726079197239
 30
0.0
 11
-18.44170698070351
 21
6.433824924963992
 31
0.0
  0
LINE
  5
8A
330
1F
100
AcDbEntity
  8
0
100
AcDbLine
 10
-18.79426702189144
 20
3.040954456411766
 30
0.0
 11
-18.74592748970433
 21
5.09726079197239
 31
0.0
  0
LINE
  5
8B
330
1F
100
AcDbEntity
  8
0
100
AcDbLine
 10
-18.72480557819601
 20
1.007610765914565
 30
0.0
 11
-18.79426702189144
 21
3.040954456411766
 31
0.0
  0
LINE
  5
8C
330
1F
100
AcDbEntity
  8
0
100
AcDbLine
 10
-23.16582788013385
 20
11.00926066053604
 30
0.0
 11
-23.25368518547968
 21
10.7635365046629
 31
0.0
  0
LINE
  5
8D
330
1F
100
AcDbEntity
  8
0
100
AcDbLine
 10
-23.59000211833165
 20
0.826408023745178
 30
0.0
 11
-23.85229550180729
 21
-0.4002630811045776
 31
0.0
  0
LINE
  5
8E
330
1F
100
AcDbEntity
  8
0
100
AcDbLine
 10
-25.13208952539867
 20
8.61129222184526
 30
0.0
 11
-24.49304711325519
 21
7.497191340895539
 31
0.0
  0
LINE
  5
8F
330
1F
100
AcDbEntity
  8
0
100
AcDbLine
 10
-30.38218890810603
 20
-4.542224161768674
 30
0.0
 11
-31.05451859744297
 21
-4.287947468060046
 31
0.0
  0
LINE
  5
90
330
1F
100
AcDbEntity
  8
0
100
AcDbLine
 10
-19.21707939882183
 20
12.76778398474901
 30
0.0
 11
-18.99440290092382
 21
13.68450978752692
 31
0.0
  0
LINE
  5
91
330
1F
100
AcDbEntity
  8
0
100
AcDbLine
 10
-18.43376188317552
 20
-0.2659667297104372
 30
0.0
 11
-18.72480557819601
 21
1.007610765914565
 31
0.0
  0
LINE
  5
92
330
1F
100
AcDbEntity
  8
0
100
AcDbLine
 10
-24.93622243908969
 20
-2.661382119652755
 30
0.0
 11
-25.39730896419571
 21
-3.251156098119659
 31
0.0
  0
LINE
  5
93
330
1F
100
AcDbEntity
  8
0
100
AcDbLine
 10
-18.44170698070351
 20
6.433824924963992
 30
0.0
 11
-17.97831391917858
 21
7.573556126421392
 31
0.0
  0
LINE
  5
94
330
1F
100
AcDbEntity
  8
0
100
AcDbLine
 10
-18.07885030533158
 20
-1.209142756455347
 30
0.0
 11
-18.43376188317552
 21
-0.2659667297104372
 31
0.0
  0
LINE
  5
95
330
1F
100
AcDbEntity
  8
0
100
AcDbLine
 10
-24.49304711325519
 20
7.497191340895539
 30
0.0
 11
-23.99919363857032
 21
6.364146622100942
 31
0.0
  0
LINE
  5
96
330
1F
100
AcDbEntity
  8
0
100
AcDbLine
 10
-17.71311843979054
 20
-1.966484508936486
 30
0.0
 11
-18.07885030533158
 21
-1.209142756455347
 31
0.0
  0
LINE
  5
97
330
1F
100
AcDbEntity
  8
0
100
AcDbLine
 10
-23.2030060741795
 20
11.73867871624698
 30
0.0
 11
-23.16582788013385
 21
11.00926066053604
 31
0.0
  0
LINE
  5
98
330
1F
100
AcDbEntity
  8
0
100
AcDbLine
 10
-24.91464979353726
 20
16.49271277209957
 30
0.0
 11
-23.87974036141235
 21
14.37837552642072
 31
0.0
  0
LINE
  5
99
330
1F
100
AcDbEntity
  8
0
100
AcDbLine
 10
-19.37613205812045
 20
11.20105105795914
 30
0.0
 11
-19.35649960038011
 21
11.87222345922995
 31
0.0
  0
LINE
  5
9A
330
1F
100
AcDbEntity
  8
0
100
AcDbLine
 10
-26.70623523462744
 20
10.4215109385384
 30
0.0
 11
-25.90065180985707
 21
9.597220529676138
 31
0.0
  0
LINE
  5
9B
330
1F
100
AcDbEntity
  8
0
100
AcDbLine
 10
-32.30525475596777
 20
-3.56237632795158
 30
0.0
 11
-32.97836167887053
 21
-2.991395278092273
 31
0.0
  0
LINE
  5
9C
330
1F
100
AcDbEntity
  8
0
100
AcDbLine
 10
-28.83644460495337
 20
-4.75910295650602
 30
0.0
 11
-29.64743983769908
 21
-4.715157857658735
 31
0.0
  0
LINE
  5
9D
330
1F
100
AcDbEntity
  8
0
100
AcDbLine
 10
-26.47852818273345
 20
14.0302641341855
 30
0.0
 11
-26.85614602068252
 21
13.94391899753287
 31
0.0
  0
LINE
  5
9E
330
1F
100
AcDbEntity
  8
0
100
AcDbLine
 10
-23.87974036141235
 20
14.37837552642072
 30
0.0
 11
-23.54570261172809
 21
13.49825517513622
 31
0.0
  0
LINE
  5
9F
330
1F
100
AcDbEntity
  8
0
100
AcDbLine
 10
-23.77289541143551
 20
11.22109313613655
 30
0.0
 11
-25.87610728208283
 21
13.47145433994657
 31
0.0
  0
LINE
  5
A0
330
1F
100
AcDbEntity
  8
0
100
AcDbLine
 10
-23.56938012009052
 20
2.914063489631542
 30
0.0
 11
-23.59000211833165
 21
0.826408023745178
 31
0.0
  0
LINE
  5
A1
330
1F
100
AcDbEntity
  8
0
100
AcDbLine
 10
-31.05451859744297
 20
-4.287947468060046
 30
0.0
 11
-32.30525475596777
 21
-3.56237632795158
 31
0.0
  0
LINE
  5
A2
330
1F
100
AcDbEntity
  8
0
100
AcDbLine
 10
-21.70313283708228
 20
20.64262022867349
 30
0.0
 11
-24.91464979353726
 21
16.49271277209957
 31
0.0
  0
LINE
  5
A3
330
1F
100
AcDbEntity
  8
0
100
AcDbLine
 10
-29.64743983769908
 20
-4.715157857658735
 30
0.0
 11
-30.38218890810603
 21
-4.542224161768674
 31
0.0
  0
LINE
  5
A4
330
1F
100
AcDbEntity
  8
0
100
AcDbLine
 10
-28.49281047226468
 20
11.92686029920178
 30
0.0
 11
-26.70623523462744
 21
10.4215109385384
 31
0.0
  0
LINE
  5
A5
330
1F
100
AcDbEntity
  8
0
100
AcDbLine
 10
-26.85614602068252
 20
13.94391899753287
 30
0.0
 11
-27.6203528724214
 21
13.04827272984778
 31
0.0
  0
LINE
  5
A6
330
1F
100
AcDbEntity
  8
0
100
AcDbLine
 10
-23.25368518547968
 20
10.7635365046629
 30
0.0
 11
-23.77289541143551
 21
11.22109313613655
 31
0.0
  0
LINE
  5
A7
330
1F
100
AcDbEntity
  8
0
100
AcDbLine
 10
-20.77505881843356
 20
20.3077659419042
 30
0.0
 11
-21.36283541912297
 21
20.97035055225462
 31
0.0
  0
LINE
  5
A8
330
1F
100
AcDbEntity
  8
0
100
AcDbLine
 10
-18.65262320737691
 20
14.63420074941585
 30
0.0
 11
-17.7351265347119
 21
16.59538189854226
 31
0.0
  0
LINE
  5
A9
330
1F
100
AcDbEntity
  8
0
100
AcDbLine
 10
-18.99440290092382
 20
13.68450978752692
 30
0.0
 11
-18.65262320737691
 21
14.63420074941585
 31
0.0
  0
LINE
  5
AA
330
1F
100
AcDbEntity
  8
0
100
AcDbLine
 10
-18.78133858541567
 20
11.30579834909178
 30
0.0
 11
-19.2877359292929
 21
10.89985498667523
 31
0.0
  0
LINE
  5
AB
330
1F
100
AcDbEntity
  8
0
100
AcDbLine
 10
-24.18599766839587
 20
-1.300970661682946
 30
0.0
 11
-24.53446949237769
 21
-2.04493350436494
 31
0.0
  0
LINE
  5
AC
330
1F
100
AcDbEntity
  8
0
100
AcDbLine
 10
-17.7351265347119
 20
16.59538189854226
 30
0.0
 11
-20.77505881843356
 21
20.3077659419042
 31
0.0
  0
LINE
  5
AD
330
1F
100
AcDbEntity
  8
0
100
AcDbLine
 10
-19.2877359292929
 20
10.89985498667523
 30
0.0
 11
-19.37613205812045
 21
11.20105105795914
 31
0.0
  0
LINE
  5
AE
330
1F
100
AcDbEntity
  8
0
100
AcDbLine
 10
-27.96928645526655
 20
-4.678586058981216
 30
0.0
 11
-28.83644460495337
 21
-4.75910295650602
 31
0.0
  0
LINE
  5
AF
330
1F
100
AcDbEntity
  8
0
100
AcDbLine
 10
-27.16267592918899
 20
-4.466327609541541
 30
0.0
 11
-27.96928645526655
 21
-4.678586058981216
 31
0.0
  0
LINE
  5
B0
330
1F
100
AcDbEntity
  8
0
100
AcDbLine
 10
-23.60738212120001
 20
5.216976615421404
 30
0.0
 11
-23.56938012009052
 21
2.914063489631542
 31
0.0
  0
LINE
  5
B1
330
1F
100
AcDbEntity
  8
0
100
AcDbLine
 10
-25.92556670022939
 20
-3.758210501707399
 30
0.0
 11
-26.48655516478946
 21
-4.173512201679815
 31
0.0
  0
LINE
  5
B2
330
1F
100
AcDbEntity
  8
0
100
AcDbLine
 10
-27.6203528724214
 20
13.04827272984778
 30
0.0
 11
-28.49281047226468
 21
11.92686029920178
 31
0.0
  0
LINE
  5
B3
330
1F
100
AcDbEntity
  8
0
100
AcDbLine
 10
-19.35649960038011
 20
11.87222345922995
 30
0.0
 11
-19.21707939882183
 21
12.76778398474901
 31
0.0
  0
LINE
  5
B4
330
1F
100
AcDbEntity
  8
0
100
AcDbLine
 10
-15.75128922300623
 20
14.08603191516576
 30
0.0
 11
-16.13211868997975
 21
14.15355635189392
 31
0.0
  0
LINE
  5
B5
330
1F
100
AcDbEntity
  8
0
100
AcDbLine
 10
-14.97379296740695
 20
13.19950948870411
 30
0.0
 11
-15.75128922300623
 21
14.08603191516576
 31
0.0
  0
LINE
  5
B6
330
1F
100
AcDbEntity
  8
0
100
AcDbLine
 10
-14.09359611716708
 20
12.02055439580004
 30
0.0
 11
-14.97379296740695
 21
13.19950948870411
 31
0.0
  0
LINE
  5
B7
330
1F
100
AcDbEntity
  8
0
100
AcDbLine
 10
-33.72448322676191
 20
-2.20244750335201
 30
0.0
 11
-34.47915075744334
 21
-1.174618128565361
 31
0.0
  0
LINE
  5
B8
330
1F
100
AcDbEntity
  8
0
100
AcDbLine
 10
-32.97836167887053
 20
-2.991395278092273
 30
0.0
 11
-33.72448322676191
 21
-2.20244750335201
 31
0.0
  0
LINE
  5
B9
330
1F
100
AcDbEntity
  8
0
100
AcDbLine
 10
-16.13211868997975
 20
14.15355635189392
 30
0.0
 11
-16.72725328637468
 21
13.57807088570653
 31
0.0
  0
LINE
  5
BA
330
1F
100
AcDbEntity
  8
0
100
AcDbLine
 10
-25.39730896419571
 20
-3.251156098119659
 30
0.0
 11
-25.92556670022939
 21
-3.758210501707399
 31
0.0
  0
LINE
  5
BB
330
1F
100
AcDbEntity
  8
0
100
AcDbLine
 10
-15.66642732328036
 20
10.71258201031397
 30
0.0
 11
-14.09359611716708
 21
12.02055439580004
 31
0.0
  0
LINE
  5
BC
330
1F
100
AcDbEntity
  8
0
100
AcDbLine
 10
-16.21053735381255
 20
10.20679116317312
 30
0.0
 11
-15.66642732328036
 21
10.71258201031397
 31
0.0
  0
LINE
  5
BD
330
1F
100
AcDbEntity
  8
0
100
AcDbLine
 10
-17.97831391917858
 20
7.573556126421392
 30
0.0
 11
-17.35182922579092
 21
8.677738309476442
 31
0.0
  0
LINE
  5
BE
330
1F
100
AcDbEntity
  8
0
100
AcDbLine
 10
-16.72725328637468
 20
13.57807088570653
 30
0.0
 11
-18.78133858541567
 21
11.30579834909178
 31
0.0
  0
LINE
  5
BF
330
1F
100
AcDbEntity
  8
0
100
AcDbLine
 10
-16.718628028077
 20
9.573243697652767
 30
0.0
 11
-16.21053735381255
 21
10.20679116317312
 31
0.0
  0
LINE
  5
C0
330
1F
100
AcDbEntity
  8
0
100
AcDbLine
 10
-25.90065180985707
 20
9.597220529676138
 30
0.0
 11
-25.13208952539867
 21
8.61129222184526
 31
0.0
  0
LINE
  5
C1
330
1F
100
AcDbEntity
  8
0
100
AcDbLine
 10
-6.282697027120502
 20
2.40890219561333
 30
0.0
 11
-6.634474812252669
 21
1.335236284329235
 31
0.0
  0
LINE
  5
C2
330
1F
100
AcDbEntity
  8
0
100
AcDbLine
 10
-1.937486805509941
 20
5.250261439724257
 30
0.0
 11
-2.499423307628701
 21
6.667549493150877
 31
0.0
  0
LINE
  5
C3
330
1F
100
AcDbEntity
  8
0
100
AcDbLine
 10
-1.129508749226079
 20
-4.673674641606856
 30
0.0
 11
-0.9525060641127056
 21
-3.168701505576754
 31
0.0
  0
LINE
  5
C4
330
1F
100
AcDbEntity
  8
0
100
AcDbLine
 10
-1.42293616108344
 20
-5.942454611184219
 30
0.0
 11
-1.129508749226079
 21
-4.673674641606856
 31
0.0
  0
LINE
  5
C5
330
1F
100
AcDbEntity
  8
0
100
AcDbLine
 10
-6.333816458906817
 20
-15.05109786984585
 30
0.0
 11
-5.431577475432377
 21
-14.01435527343529
 31
0.0
  0
LINE
  5
C6
330
1F
100
AcDbEntity
  8
0
100
AcDbLine
 10
-12.56452532915584
 20
-4.521574059444122
 30
0.0
 11
-13.35850238100658
 21
-4.581098773843732
 31
0.0
  0
LINE
  5
C7
330
1F
100
AcDbEntity
  8
0
100
AcDbLine
 10
-14.61590007074566
 20
-20.42389761072884
 30
0.0
 11
-13.49367361662013
 21
-19.99066411368697
 31
0.0
  0
LINE
  5
C8
330
1F
100
AcDbEntity
  8
0
100
AcDbLine
 10
-15.8468668970761
 20
-20.78937687014762
 30
0.0
 11
-14.61590007074566
 21
-20.42389761072884
 31
0.0
  0
LINE
  5
C9
330
1F
100
AcDbEntity
  8
0
100
AcDbLine
 10
-18.89936460399329
 20
-21.36721784319372
 30
0.0
 11
-17.24377279890236
 21
-21.12216292085895
 31
0.0
  0
LINE
  5
CA
330
1F
100
AcDbEntity
  8
0
100
AcDbLine
 10
-10.88818527158919
 20
-3.949499575155982
 30
0.0
 11
-11.41189313942535
 21
-4.229041009866473
 31
0.0
  0
LINE
  5
CB
330
1F
100
AcDbEntity
  8
0
100
AcDbLine
 10
-2.338125289013988
 20
-8.731399860307892
 30
0.0
 11
-1.793467750784282
 21
-7.272582545466332
 31
0.0
  0
LINE
  5
CC
330
1F
100
AcDbEntity
  8
0
100
AcDbLine
 10
-1.002366447710031
 20
1.16679289146999
 30
0.0
 11
-1.213933669985761
 21
2.667299184040709
 31
0.0
  0
LINE
  5
CD
330
1F
100
AcDbEntity
  8
0
100
AcDbLine
 10
-10.37197354130121
 20
-18.41726011456786
 30
0.0
 11
-9.450816882116417
 21
-17.78192448910984
 31
0.0
  0
LINE
  5
CE
330
1F
100
AcDbEntity
  8
0
100
AcDbLine
 10
-6.01169686689515
 20
3.506110116994917
 30
0.0
 11
-6.282697027120502
 21
2.40890219561333
 31
0.0
  0
LINE
  5
CF
330
1F
100
AcDbEntity
  8
0
100
AcDbLine
 10
-16.82420073657767
 20
-3.15256100706347
 30
0.0
 11
-17.29872891524704
 21
-2.573547072032746
 31
0.0
  0
LINE
  5
D0
330
1F
100
AcDbEntity
  8
0
100
AcDbLine
 10
-15.03135804627921
 20
-4.326809396015269
 30
0.0
 11
-15.71403221607916
 21
-4.049622726260456
 31
0.0
  0
LINE
  5
D1
330
1F
100
AcDbEntity
  8
0
100
AcDbLine
 10
-8.138528877081315
 20
13.0708065039576
 30
0.0
 11
-7.233548915971747
 21
11.2341949742752
 31
0.0
  0
LINE
  5
D2
330
1F
100
AcDbEntity
  8
0
100
AcDbLine
 10
-5.891259024226824
 20
12.06018668452271
 30
0.0
 11
-7.033656394550422
 21
13.26202984579818
 31
0.0
  0
LINE
  5
D3
330
1F
100
AcDbEntity
  8
0
100
AcDbLine
 10
-4.903018921301471
 20
10.87956715226174
 30
0.0
 11
-5.891259024226824
 21
12.06018668452271
 31
0.0
  0
LINE
  5
D4
330
1F
100
AcDbEntity
  8
0
100
AcDbLine
 10
-3.209074478205611
 20
8.163771526190704
 30
0.0
 11
-4.041873997528181
 21
9.602428863656273
 31
0.0
  0
LINE
  5
D5
330
1F
100
AcDbEntity
  8
0
100
AcDbLine
 10
-1.536462927944119
 20
3.929002969533361
 30
0.0
 11
-1.937486805509941
 21
5.250261439724257
 31
0.0
  0
LINE
  5
D6
330
1F
100
AcDbEntity
  8
0
100
AcDbLine
 10
-0.9525060641127056
 20
-3.168701505576754
 30
0.0
 11
-0.9198382018880684
 21
-1.000286177806463
 31
0.0
  0
LINE
  5
D7
330
1F
100
AcDbEntity
  8
0
100
AcDbLine
 10
-11.41189313942535
 20
-4.229041009866473
 30
0.0
 11
-12.56452532915584
 21
-4.521574059444122
 31
0.0
  0
LINE
  5
D8
330
1F
100
AcDbEntity
  8
0
100
AcDbLine
 10
-3.850611117335717
 20
-11.78492751713708
 30
0.0
 11
-3.04701768865154
 21
-10.31018818453563
 31
0.0
  0
LINE
  5
D9
330
1F
100
AcDbEntity
  8
0
100
AcDbLine
 10
-7.233548915971747
 20
11.2341949742752
 30
0.0
 11
-6.591044044154438
 21
9.698360723629365
 31
0.0
  0
LINE
  5
DA
330
1F
100
AcDbEntity
  8
0
100
AcDbLine
 10
-6.634474812252669
 20
1.335236284329235
 30
0.0
 11
-7.106256950833377
 21
0.2961824034467054
 31
0.0
  0
LINE
  5
DB
330
1F
100
AcDbEntity
  8
0
100
AcDbLine
 10
-5.431577475432377
 20
-14.01435527343529
 30
0.0
 11
-4.619887373922124
 21
-12.99145319073527
 31
0.0
  0
LINE
  5
DC
330
1F
100
AcDbEntity
  8
0
100
AcDbLine
 10
-8.757253501668755
 20
14.79980571745575
 30
0.0
 11
-9.228865780570107
 21
15.1198009466979
 31
0.0
  0
LINE
  5
DD
330
1F
100
AcDbEntity
  8
0
100
AcDbLine
 10
-7.344374010533874
 20
-16.05178742318664
 30
0.0
 11
-6.333816458906817
 21
-15.05109786984585
 31
0.0
  0
LINE
  5
DE
330
1F
100
AcDbEntity
  8
0
100
AcDbLine
 10
-17.24377279890236
 20
-21.12216292085895
 30
0.0
 11
-15.8468668970761
 21
-20.78937687014762
 31
0.0
  0
LINE
  5
DF
330
1F
100
AcDbEntity
  8
0
100
AcDbLine
 10
-2.499423307628701
 20
6.667549493150877
 30
0.0
 11
-3.209074478205611
 21
8.163771526190704
 31
0.0
  0
LINE
  5
E0
330
1F
100
AcDbEntity
  8
0
100
AcDbLine
 10
-8.416108329860382
 20
-16.99407361988468
 30
0.0
 11
-7.344374010533874
 21
-16.05178742318664
 31
0.0
  0
LINE
  5
E1
330
1F
100
AcDbEntity
  8
0
100
AcDbLine
 10
-20.90082076741634
 20
-21.45644023786248
 30
0.0
 11
-18.89936460399329
 21
-21.36721784319372
 31
0.0
  0
LINE
  5
E2
330
1F
100
AcDbEntity
  8
0
100
AcDbLine
 10
-0.9198382018880684
 20
-1.000286177806463
 30
0.0
 11
-1.002366447710031
 21
1.16679289146999
 31
0.0
  0
LINE
  5
E3
330
1F
100
AcDbEntity
  8
0
100
AcDbLine
 10
-9.228865780570107
 20
15.1198009466979
 30
0.0
 11
-8.138528877081315
 21
13.0708065039576
 31
0.0
  0
LINE
  5
E4
330
1F
100
AcDbEntity
  8
0
100
AcDbLine
 10
-17.29872891524704
 20
-2.573547072032746
 30
0.0
 11
-17.71311843979054
 21
-1.966484508936486
 31
0.0
  0
LINE
  5
E5
330
1F
100
AcDbEntity
  8
0
100
AcDbLine
 10
-9.453266946940047
 20
-2.916641323818616
 30
0.0
 11
-10.19091169439455
 21
-3.499520580354265
 31
0.0
  0
LINE
  5
E6
330
1F
100
AcDbEntity
  8
0
100
AcDbLine
 10
-3.04701768865154
 20
-10.31018818453563
 30
0.0
 11
-2.338125289013988
 21
-8.731399860307892
 31
0.0
  0
LINE
  5
E7
330
1F
100
AcDbEntity
  8
0
100
AcDbLine
 10
-4.619887373922124
 20
-12.99145319073527
 30
0.0
 11
-3.850611117335717
 21
-11.78492751713708
 31
0.0
  0
LINE
  5
E8
330
1F
100
AcDbEntity
  8
0
100
AcDbLine
 10
-8.83250960689285
 20
-2.317820795424295
 30
0.0
 11
-9.453266946940047
 21
-2.916641323818616
 31
0.0
  0
LINE
  5
E9
330
1F
100
AcDbEntity
  8
0
100
AcDbLine
 10
-22.90379950317484
 20
-21.41327087472335
 30
0.0
 11
-20.90082076741634
 21
-21.45644023786248
 31
0.0
  0
LINE
  5
EA
330
1F
100
AcDbEntity
  8
0
100
AcDbLine
 10
-16.28442340269039
 20
-3.647332465869194
 30
0.0
 11
-16.82420073657767
 21
-3.15256100706347
 31
0.0
  0
LINE
  5
EB
330
1F
100
AcDbEntity
  8
0
100
AcDbLine
 10
-6.223114455885299
 20
8.497647922420507
 30
0.0
 11
-5.97812684033274
 21
7.474030344434133
 31
0.0
  0
LINE
  5
EC
330
1F
100
AcDbEntity
  8
0
100
AcDbLine
 10
-24.56459109705606
 20
-21.2063560428339
 30
0.0
 11
-22.90379950317484
 21
-21.41327087472335
 31
0.0
  0
LINE
  5
ED
330
1F
100
AcDbEntity
  8
0
100
AcDbLine
 10
-15.71403221607916
 20
-4.049622726260456
 30
0.0
 11
-16.28442340269039
 21
-3.647332465869194
 31
0.0
  0
LINE
  5
EE
330
1F
100
AcDbEntity
  8
0
100
AcDbLine
 10
-8.05669712684678
 20
14.21622483858842
 30
0.0
 11
-8.757253501668755
 21
14.79980571745575
 31
0.0
  0
LINE
  5
EF
330
1F
100
AcDbEntity
  8
0
100
AcDbLine
 10
-7.033656394550422
 20
13.26202984579818
 30
0.0
 11
-8.05669712684678
 21
14.21622483858842
 31
0.0
  0
LINE
  5
F0
330
1F
100
AcDbEntity
  8
0
100
AcDbLine
 10
-5.864224920360273
 20
4.578866551001325
 30
0.0
 11
-6.01169686689515
 21
3.506110116994917
 31
0.0
  0
LINE
  5
F1
330
1F
100
AcDbEntity
  8
0
100
AcDbLine
 10
-5.97812684033274
 20
7.474030344434133
 30
0.0
 11
-5.863904629426665
 21
6.551122840658558
 31
0.0
  0
LINE
  5
F2
330
1F
100
AcDbEntity
  8
0
100
AcDbLine
 10
-8.267876833952068
 20
-1.595850615874912
 30
0.0
 11
-8.83250960689285
 21
-2.317820795424295
 31
0.0
  0
LINE
  5
F3
330
1F
100
AcDbEntity
  8
0
100
AcDbLine
 10
-7.106256950833377
 20
0.2961824034467054
 30
0.0
 11
-7.667546769349003
 21
-0.716549580504734
 31
0.0
  0
LINE
  5
F4
330
1F
100
AcDbEntity
  8
0
100
AcDbLine
 10
-5.809716148427282
 20
5.595853207584829
 30
0.0
 11
-5.864224920360273
 21
4.578866551001325
 31
0.0
  0
LINE
  5
F5
330
1F
100
AcDbEntity
  8
0
100
AcDbLine
 10
-6.591044044154438
 20
9.698360723629365
 30
0.0
 11
-6.223114455885299
 21
8.497647922420507
 31
0.0
  0
LINE
  5
F6
330
1F
100
AcDbEntity
  8
0
100
AcDbLine
 10
-13.35850238100658
 20
-4.581098773843732
 30
0.0
 11
-14.22007548704404
 21
-4.520465069675598
 31
0.0
  0
LINE
  5
F7
330
1F
100
AcDbEntity
  8
0
100
AcDbLine
 10
-10.19091169439455
 20
-3.499520580354265
 30
0.0
 11
-10.88818527158919
 21
-3.949499575155982
 31
0.0
  0
LINE
  5
F8
330
1F
100
AcDbEntity
  8
0
100
AcDbLine
 10
-5.863904629426665
 20
6.551122840658558
 30
0.0
 11
-5.809716148427282
 21
5.595853207584829
 31
0.0
  0
LINE
  5
F9
330
1F
100
AcDbEntity
  8
0
100
AcDbLine
 10
-1.213933669985761
 20
2.667299184040709
 30
0.0
 11
-1.536462927944119
 21
3.929002969533361
 31
0.0
  0
LINE
  5
FA
330
1F
100
AcDbEntity
  8
0
100
AcDbLine
 10
-4.041873997528181
 20
9.602428863656273
 30
0.0
 11
-4.903018921301471
 21
10.87956715226174
 31
0.0
  0
LINE
  5
FB
330
1F
100
AcDbEntity
  8
0
100
AcDbLine
 10
-1.793467750784282
 20
-7.272582545466332
 30
0.0
 11
-1.42293616108344
 21
-5.942454611184219
 31
0.0
  0
LINE
  5
FC
330
1F
100
AcDbEntity
  8
0
100
AcDbLine
 10
-9.450816882116417
 20
-17.78192448910984
 30
0.0
 11
-8.416108329860382
 21
-16.99407361988468
 31
0.0
  0
LINE
  5
FD
330
1F
100
AcDbEntity
  8
0
100
AcDbLine
 10
-12.35783190245182
 20
-19.4895682175324
 30
0.0
 11
-10.37197354130121
 21
-18.41726011456786
 31
0.0
  0
LINE
  5
FE
330
1F
100
AcDbEntity
  8
0
100
AcDbLine
 10
-13.49367361662013
 20
-19.99066411368697
 30
0.0
 11
-12.35783190245182
 21
-19.4895682175324
 31
0.0
  0
LINE
  5
FF
330
1F
100
AcDbEntity
  8
0
100
AcDbLine
 10
-7.667546769349003
 20
-0.716549580504734
 30
0.0
 11
-8.267876833952068
 21
-1.595850615874912
 31
0.0
  0
LINE
  5
100
330
1F
100
AcDbEntity
  8
0
100
AcDbLine
 10
-14.22007548704404
 20
-4.520465069675598
 30
0.0
 11
-15.03135804627921
 21
-4.326809396015269
 31
0.0
  0
LINE
  5
101
330
1F
100
AcDbEntity
  8
0
100
AcDbLine
 10
-19.60676302180923
 20
15.92309540993939
 30
0.0
 11
-19.61375352077839
 21
16.53096918713097
 31
0.0
  0
LINE
  5
102
330
1F
100
AcDbEntity
  8
0
100
AcDbLine
 10
-39.76606825027466
 20
-9.125848038467105
 30
0.0
 11
-39.07822639604257
 21
-10.60355896793115
 31
0.0
  0
LINE
  5
103
330
1F
100
AcDbEntity
  8
0
100
AcDbLine
 10
-20.71641669809744
 20
14.56934759822717
 30
0.0
 11
-20.1934778273279
 21
14.87933874610017
 31
0.0
  0
LINE
  5
104
330
1F
100
AcDbEntity
  8
0
100
AcDbLine
 10
-34.56612610360053
 20
13.901250979123
 30
0.0
 11
-35.56411654400306
 21
12.92961182649403
 31
0.0
  0
LINE
  5
105
330
1F
100
AcDbEntity
  8
0
100
AcDbLine
 10
-33.43803114362671
 20
14.82118692854269
 30
0.0
 11
-33.88772546800747
 21
14.4963911146046
 31
0.0
  0
LINE
  5
106
330
1F
100
AcDbEntity
  8
0
100
AcDbLine
 10
-22.8598431107398
 20
17.06493001765247
 30
0.0
 11
-23.06117898196188
 21
16.49132395400861
 31
0.0
  0
LINE
  5
107
330
1F
100
AcDbEntity
  8
0
100
AcDbLine
 10
-27.207825562499
 20
-20.56871113780327
 30
0.0
 11
-25.96877521624101
 21
-20.90578394747525
 31
0.0
  0
LINE
  5
108
330
1F
100
AcDbEntity
  8
0
100
AcDbLine
 10
-39.82223179080992
 20
6.523367487146302
 30
0.0
 11
-40.3284105924734
 21
5.223343622224474
 31
0.0
  0
LINE
  5
109
330
1F
100
AcDbEntity
  8
0
100
AcDbLine
 10
-37.63662239421441
 20
10.50881746641423
 30
0.0
 11
-38.44426047716663
 21
9.255737409963814
 31
0.0
  0
LINE
  5
10A
330
1F
100
AcDbEntity
  8
0
100
AcDbLine
 10
-40.72314414587014
 20
-6.394426927631208
 30
0.0
 11
-40.32061360638886
 21
-7.715664255496701
 31
0.0
  0
LINE
  5
10B
330
1F
100
AcDbEntity
  8
0
100
AcDbLine
 10
-33.88772546800747
 20
14.4963911146046
 30
0.0
 11
-34.56612610360053
 21
13.901250979123
 31
0.0
  0
LINE
  5
10C
330
1F
100
AcDbEntity
  8
0
100
AcDbLine
 10
-34.52401481663498
 20
12.61335052622307
 30
0.0
 11
-33.43803114362671
 21
14.82118692854269
 31
0.0
  0
LINE
  5
10D
330
1F
100
AcDbEntity
  8
0
100
AcDbLine
 10
-34.97228581419373
 20
-16.00089910293359
 30
0.0
 11
-33.04175980193668
 21
-17.62710624579819
 31
0.0
  0
LINE
  5
10E
330
1F
100
AcDbEntity
  8
0
100
AcDbLine
 10
-21.31384177995426
 20
14.45690676239398
 30
0.0
 11
-20.71641669809744
 21
14.56934759822717
 31
0.0
  0
LINE
  5
10F
330
1F
100
AcDbEntity
  8
0
100
AcDbLine
 10
-36.09102446344831
 20
-14.85638768474481
 30
0.0
 11
-34.97228581419373
 21
-16.00089910293359
 31
0.0
  0
LINE
  5
110
330
1F
100
AcDbEntity
  8
0
100
AcDbLine
 10
-38.202982362718
 20
-12.09789185889436
 30
0.0
 11
-37.19731672140033
 21
-13.55042180097236
 31
0.0
  0
LINE
  5
111
330
1F
100
AcDbEntity
  8
0
100
AcDbLine
 10
-25.96877521624101
 20
-20.90578394747525
 30
0.0
 11
-24.56459109705606
 21
-21.2063560428339
 31
0.0
  0
LINE
  5
112
330
1F
100
AcDbEntity
  8
0
100
AcDbLine
 10
-29.39264195817737
 20
-19.73588219018635
 30
0.0
 11
-27.207825562499
 21
-20.56871113780327
 31
0.0
  0
LINE
  5
113
330
1F
100
AcDbEntity
  8
0
100
AcDbLine
 10
-40.3284105924734
 20
5.223343622224474
 30
0.0
 11
-40.71915634851708
 21
3.90305849648032
 31
0.0
  0
LINE
  5
114
330
1F
100
AcDbEntity
  8
0
100
AcDbLine
 10
-41.31113832206476
 20
0.802557142208759
 30
0.0
 11
-41.34696675161588
 21
-1.465218652082267
 31
0.0
  0
LINE
  5
115
330
1F
100
AcDbEntity
  8
0
100
AcDbLine
 10
-19.80809915336814
 20
15.34949125077629
 30
0.0
 11
-19.60676302180923
 21
15.92309540993939
 31
0.0
  0
LINE
  5
116
330
1F
100
AcDbEntity
  8
0
100
AcDbLine
 10
-21.95152543584208
 20
17.84507271796121
 30
0.0
 11
-22.47446442581303
 21
17.53508156871733
 31
0.0
  0
LINE
  5
117
330
1F
100
AcDbEntity
  8
0
100
AcDbLine
 10
-20.1934778273279
 20
14.87933874610017
 30
0.0
 11
-19.80809915336814
 21
15.34949125077629
 31
0.0
  0
LINE
  5
118
330
1F
100
AcDbEntity
  8
0
100
AcDbLine
 10
-41.34696675161588
 20
-1.465218652082267
 30
0.0
 11
-41.26163857154394
 21
-3.632276965543906
 31
0.0
  0
LINE
  5
119
330
1F
100
AcDbEntity
  8
0
100
AcDbLine
 10
-39.19591948423562
 20
7.899622257988134
 30
0.0
 11
-39.82223179080992
 21
6.523367487146302
 31
0.0
  0
LINE
  5
11A
330
1F
100
AcDbEntity
  8
0
100
AcDbLine
 10
-33.04175980193668
 20
-17.62710624579819
 30
0.0
 11
-31.34749616938258
 21
-18.74489595836713
 31
0.0
  0
LINE
  5
11B
330
1F
100
AcDbEntity
  8
0
100
AcDbLine
 10
-41.26163857154394
 20
-3.632276965543906
 30
0.0
 11
-41.04716476409583
 21
-5.132747923436781
 31
0.0
  0
LINE
  5
11C
330
1F
100
AcDbEntity
  8
0
100
AcDbLine
 10
-38.44426047716663
 20
9.255737409963814
 30
0.0
 11
-39.19591948423562
 21
7.899622257988134
 31
0.0
  0
LINE
  5
11D
330
1F
100
AcDbEntity
  8
0
100
AcDbLine
 10
-41.06411174034049
 20
2.479649711982686
 30
0.0
 11
-41.31113832206476
 21
0.802557142208759
 31
0.0
  0
LINE
  5
11E
330
1F
100
AcDbEntity
  8
0
100
AcDbLine
 10
-40.32061360638886
 20
-7.715664255496701
 30
0.0
 11
-39.76606825027466
 21
-9.125848038467105
 31
0.0
  0
LINE
  5
11F
330
1F
100
AcDbEntity
  8
0
100
AcDbLine
 10
-37.19731672140033
 20
-13.55042180097236
 30
0.0
 11
-36.09102446344831
 21
-14.85638768474481
 31
0.0
  0
LINE
  5
120
330
1F
100
AcDbEntity
  8
0
100
AcDbLine
 10
-21.35410027555123
 20
17.95751450843381
 30
0.0
 11
-21.95152543584208
 21
17.84507271796121
 31
0.0
  0
LINE
  5
121
330
1F
100
AcDbEntity
  8
0
100
AcDbLine
 10
-35.56411654400306
 20
12.92961182649403
 30
0.0
 11
-36.67872523469525
 21
11.70611521431407
 31
0.0
  0
LINE
  5
122
330
1F
100
AcDbEntity
  8
0
100
AcDbLine
 10
-22.47446442581303
 20
17.53508156871733
 30
0.0
 11
-22.8598431107398
 21
17.06493001765247
 31
0.0
  0
LINE
  5
123
330
1F
100
AcDbEntity
  8
0
100
AcDbLine
 10
-31.34749616938258
 20
-18.74489595836713
 30
0.0
 11
-30.40593460493561
 21
-19.25089971757966
 31
0.0
  0
LINE
  5
124
330
1F
100
AcDbEntity
  8
0
100
AcDbLine
 10
-40.71915634851708
 20
3.90305849648032
 30
0.0
 11
-41.06411174034049
 21
2.479649711982686
 31
0.0
  0
LINE
  5
125
330
1F
100
AcDbEntity
  8
0
100
AcDbLine
 10
-41.04716476409583
 20
-5.132747923436781
 30
0.0
 11
-40.72314414587014
 21
-6.394426927631208
 31
0.0
  0
LINE
  5
126
330
1F
100
AcDbEntity
  8
0
100
AcDbLine
 10
-30.40593460493561
 20
-19.25089971757966
 30
0.0
 11
-29.39264195817737
 21
-19.73588219018635
 31
0.0
  0
LINE
  5
127
330
1F
100
AcDbEntity
  8
0
100
AcDbLine
 10
-39.07822639604257
 20
-10.60355896793115
 30
0.0
 11
-38.202982362718
 21
-12.09789185889436
 31
0.0
  0
LINE
  5
128
330
1F
100
AcDbEntity
  8
0
100
AcDbLine
 10
-36.67872523469525
 20
11.70611521431407
 30
0.0
 11
-37.63662239421441
 21
10.50881746641423
 31
0.0
  0
LINE
  5
129
330
1F
100
AcDbEntity
  8
0
100
AcDbLine
 10
19.823180513733
 20
15.33955155861139
 30
0.0
 11
19.42709134386563
 21
15.80071583315353
 31
0.0
  0
LINE
  5
12A
330
1F
100
AcDbEntity
  8
0
100
AcDbLine
 10
5.874787196590794
 20
3.914900540116594
 30
0.0
 11
5.714659020239735
 21
5.194300245967623
 31
0.0
  0
LINE
  5
12B
330
1F
100
AcDbEntity
  8
0
100
AcDbLine
 10
7.092135219797172
 20
0.456592732365339
 30
0.0
 11
6.538698658872833
 21
1.639334346380604
 31
0.0
  0
LINE
  5
12C
330
1F
100
AcDbEntity
  8
0
100
AcDbLine
 10
6.538698658872833
 20
1.639334346380604
 30
0.0
 11
6.125613197086011
 21
2.757468267838171
 31
0.0
  0
LINE
  5
12D
330
1F
100
AcDbEntity
  8
0
100
AcDbLine
 10
7.787654196060609
 20
-0.6885284429574962
 30
0.0
 11
7.092135219797172
 21
0.456592732365339
 31
0.0
  0
LINE
  5
12E
330
1F
100
AcDbEntity
  8
0
100
AcDbLine
 10
15.10412902431497
 20
-3.980237923933677
 30
0.0
 11
15.78024978871449
 21
-3.68742251607195
 31
0.0
  0
LINE
  5
12F
330
1F
100
AcDbEntity
  8
0
100
AcDbLine
 10
22.04248844038244
 20
18.04704909611273
 30
0.0
 11
22.43857725264559
 21
17.58588481745797
 31
0.0
  0
LINE
  5
130
330
1F
100
AcDbEntity
  8
0
100
AcDbLine
 10
19.21261694731687
 20
16.36953986790839
 30
0.0
 11
19.20562597154208
 21
16.97741363961647
 31
0.0
  0
LINE
  5
131
330
1F
100
AcDbEntity
  8
0
100
AcDbLine
 10
19.42709134386563
 20
15.80071583315353
 30
0.0
 11
19.21261694731687
 21
16.36953986790839
 31
0.0
  0
LINE
  5
132
330
1F
100
AcDbEntity
  8
0
100
AcDbLine
 10
20.35311025204295
 20
15.04166797979418
 30
0.0
 11
19.823180513733
 21
15.33955155861139
 31
0.0
  0
LINE
  5
133
330
1F
100
AcDbEntity
  8
0
100
AcDbLine
 10
20.9529631735497
 20
14.94299644800184
 30
0.0
 11
20.35311025204295
 21
15.04166797979418
 31
0.0
  0
LINE
  5
134
330
1F
100
AcDbEntity
  8
0
100
AcDbLine
 10
6.280871482741554
 20
9.657798433272506
 30
0.0
 11
6.863729783710102
 21
11.17750676644784
 31
0.0
  0
LINE
  5
135
330
1F
100
AcDbEntity
  8
0
100
AcDbLine
 10
5.687410256741416
 20
6.433483047241911
 30
0.0
 11
5.76163269639772
 21
7.492439598716449
 31
0.0
  0
LINE
  5
136
330
1F
100
AcDbEntity
  8
0
100
AcDbLine
 10
5.714659020239735
 20
5.194300245967623
 30
0.0
 11
5.687410256741416
 21
6.433483047241911
 31
0.0
  0
LINE
  5
137
330
1F
100
AcDbEntity
  8
0
100
AcDbLine
 10
21.51255889184162
 20
18.344931723375
 30
0.0
 11
22.04248844038244
 21
18.04704909611273
 31
0.0
  0
LINE
  5
138
330
1F
100
AcDbEntity
  8
0
100
AcDbLine
 10
20.91270467795273
 20
18.44360419404168
 30
0.0
 11
21.51255889184162
 21
18.344931723375
 31
0.0
  0
LINE
  5
139
330
1F
100
AcDbEntity
  8
0
100
AcDbLine
 10
22.43857725264559
 20
17.58588481745797
 30
0.0
 11
22.65305143272556
 21
17.01705887273884
 31
0.0
  0
LINE
  5
13A
330
1F
100
AcDbEntity
  8
0
100
AcDbLine
 10
6.125613197086011
 20
2.757468267838171
 30
0.0
 11
5.874787196590794
 21
3.914900540116594
 31
0.0
  0
LINE
  5
13B
330
1F
100
AcDbEntity
  8
0
100
AcDbLine
 10
5.973020682701577
 20
8.5126686817721
 30
0.0
 11
6.280871482741554
 21
9.657798433272506
 31
0.0
  0
LINE
  5
13C
330
1F
100
AcDbEntity
  8
0
100
AcDbLine
 10
6.863729783710102
 20
11.17750676644784
 30
0.0
 11
7.742790136868972
 21
13.09944021183093
 31
0.0
  0
LINE
  5
13D
330
1F
100
AcDbEntity
  8
0
100
AcDbLine
 10
5.76163269639772
 20
7.492439598716449
 30
0.0
 11
5.973020682701577
 21
8.5126686817721
 31
0.0
  0
LINE
  5
13E
330
1F
100
AcDbEntity
  8
0
100
AcDbLine
 10
18.26761131493363
 20
6.850236307708807
 30
0.0
 11
18.65942283230394
 21
5.703066301029269
 31
0.0
  0
LINE
  5
13F
330
1F
100
AcDbEntity
  8
0
100
AcDbLine
 10
16.39069767142112
 20
13.95754402555444
 30
0.0
 11
15.78827677077051
 21
14.51635381979336
 31
0.0
  0
LINE
  5
140
330
1F
100
AcDbEntity
  8
0
100
AcDbLine
 10
18.92079914135103
 20
13.1429844621707
 30
0.0
 11
19.06379887932446
 21
12.22476840185485
 31
0.0
  0
LINE
  5
141
330
1F
100
AcDbEntity
  8
0
100
AcDbLine
 10
17.73233546112627
 20
-1.558843818757075
 30
0.0
 11
17.33058251441427
 21
-2.175292434044891
 31
0.0
  0
LINE
  5
142
330
1F
100
AcDbEntity
  8
0
100
AcDbLine
 10
20.90396953438098
 20
21.45644023786248
 30
0.0
 11
20.56367211642168
 21
21.12870991428136
 31
0.0
  0
LINE
  5
143
330
1F
100
AcDbEntity
  8
0
100
AcDbLine
 10
18.41450945169667
 20
0.0858266045032868
 30
0.0
 11
18.08080728510808
 21
-0.8148809760750814
 31
0.0
  0
LINE
  5
144
330
1F
100
AcDbEntity
  8
0
100
AcDbLine
 10
18.72110234177586
 20
13.98434486074409
 30
0.0
 11
18.92079914135103
 21
13.1429844621707
 31
0.0
  0
LINE
  5
145
330
1F
100
AcDbEntity
  8
0
100
AcDbLine
 10
24.91497572771304
 20
9.163827995084306
 30
0.0
 11
25.54817692542695
 21
10.05933338326063
 31
0.0
  0
LINE
  5
146
330
1F
100
AcDbEntity
  8
0
100
AcDbLine
 10
23.52087746379962
 20
5.583350477580255
 30
0.0
 11
23.82509797280044
 21
6.919914610571856
 31
0.0
  0
LINE
  5
147
330
1F
100
AcDbEntity
  8
0
100
AcDbLine
 10
23.47253793161252
 20
3.527044142019631
 30
0.0
 11
23.52087746379962
 21
5.583350477580255
 31
0.0
  0
LINE
  5
148
330
1F
100
AcDbEntity
  8
0
100
AcDbLine
 10
23.54199937530795
 20
1.49370045152243
 30
0.0
 11
23.47253793161252
 21
3.527044142019631
 31
0.0
  0
LINE
  5
149
330
1F
100
AcDbEntity
  8
0
100
AcDbLine
 10
19.1009770733701
 20
11.4953503461439
 30
0.0
 11
19.01311976802427
 21
11.24962619027077
 31
0.0
  0
LINE
  5
14A
330
1F
100
AcDbEntity
  8
0
100
AcDbLine
 10
18.6768028351723
 20
1.312497709353042
 30
0.0
 11
18.41450945169667
 21
0.0858266045032868
 31
0.0
  0
LINE
  5
14B
330
1F
100
AcDbEntity
  8
0
100
AcDbLine
 10
17.13471542810529
 20
9.097381907453123
 30
0.0
 11
17.77375784024876
 21
7.983281026503404
 31
0.0
  0
LINE
  5
14C
330
1F
100
AcDbEntity
  8
0
100
AcDbLine
 10
11.88461604539792
 20
-4.05613447616081
 30
0.0
 11
11.21228635606098
 21
-3.801857782452182
 31
0.0
  0
LINE
  5
14D
330
1F
100
AcDbEntity
  8
0
100
AcDbLine
 10
23.04972555468212
 20
13.25387367035687
 30
0.0
 11
23.27240205258013
 21
14.17059947313478
 31
0.0
  0
LINE
  5
14E
330
1F
100
AcDbEntity
  8
0
100
AcDbLine
 10
23.83304307032844
 20
0.2201229558974272
 30
0.0
 11
23.54199937530795
 21
1.49370045152243
 31
0.0
  0
LINE
  5
14F
330
1F
100
AcDbEntity
  8
0
100
AcDbLine
 10
17.33058251441427
 20
-2.175292434044891
 30
0.0
 11
16.86949598930824
 21
-2.765066412511795
 31
0.0
  0
LINE
  5
150
330
1F
100
AcDbEntity
  8
0
100
AcDbLine
 10
23.82509797280044
 20
6.919914610571856
 30
0.0
 11
24.28849103432537
 21
8.059645812029256
 31
0.0
  0
LINE
  5
151
330
1F
100
AcDbEntity
  8
0
100
AcDbLine
 10
24.18795464817237
 20
-0.7230530708474826
 30
0.0
 11
23.83304307032844
 21
0.2201229558974272
 31
0.0
  0
LINE
  5
152
330
1F
100
AcDbEntity
  8
0
100
AcDbLine
 10
17.77375784024876
 20
7.983281026503404
 30
0.0
 11
18.26761131493363
 21
6.850236307708807
 31
0.0
  0
LINE
  5
153
330
1F
100
AcDbEntity
  8
0
100
AcDbLine
 10
24.55368651371342
 20
-1.480394823328621
 30
0.0
 11
24.18795464817237
 21
-0.7230530708474826
 31
0.0
  0
LINE
  5
154
330
1F
100
AcDbEntity
  8
0
100
AcDbLine
 10
19.06379887932446
 20
12.22476840185485
 30
0.0
 11
19.1009770733701
 21
11.4953503461439
 31
0.0
  0
LINE
  5
155
330
1F
100
AcDbEntity
  8
0
100
AcDbLine
 10
17.3521551599667
 20
16.97880245770743
 30
0.0
 11
18.3870645920916
 21
14.86446521202858
 31
0.0
  0
LINE
  5
156
330
1F
100
AcDbEntity
  8
0
100
AcDbLine
 10
22.8906728953835
 20
11.68714074356701
 30
0.0
 11
22.91030535312384
 21
12.35831314483781
 31
0.0
  0
LINE
  5
157
330
1F
100
AcDbEntity
  8
0
100
AcDbLine
 10
15.56056971887651
 20
10.90760062414626
 30
0.0
 11
16.36615314364689
 21
10.083310215284
 31
0.0
  0
LINE
  5
158
330
1F
100
AcDbEntity
  8
0
100
AcDbLine
 10
9.96155019753618
 20
-3.076286642343716
 30
0.0
 11
9.28844327463342
 21
-2.505305592484409
 31
0.0
  0
LINE
  5
159
330
1F
100
AcDbEntity
  8
0
100
AcDbLine
 10
13.43036034855058
 20
-4.273013270898156
 30
0.0
 11
12.61936511580487
 21
-4.22906817205087
 31
0.0
  0
LINE
  5
15A
330
1F
100
AcDbEntity
  8
0
100
AcDbLine
 10
15.78827677077051
 20
14.51635381979336
 30
0.0
 11
15.41065893282143
 21
14.43000868314073
 31
0.0
  0
LINE
  5
15B
330
1F
100
AcDbEntity
  8
0
100
AcDbLine
 10
18.3870645920916
 20
14.86446521202858
 30
0.0
 11
18.72110234177586
 21
13.98434486074409
 31
0.0
  0
LINE
  5
15C
330
1F
100
AcDbEntity
  8
0
100
AcDbLine
 10
18.49390954206845
 20
11.70718282174442
 30
0.0
 11
16.39069767142112
 21
13.95754402555444
 31
0.0
  0
LINE
  5
15D
330
1F
100
AcDbEntity
  8
0
100
AcDbLine
 10
18.69742483341343
 20
3.400153175239406
 30
0.0
 11
18.6768028351723
 21
1.312497709353042
 31
0.0
  0
LINE
  5
15E
330
1F
100
AcDbEntity
  8
0
100
AcDbLine
 10
11.21228635606098
 20
-3.801857782452182
 30
0.0
 11
9.96155019753618
 21
-3.076286642343716
 31
0.0
  0
LINE
  5
15F
330
1F
100
AcDbEntity
  8
0
100
AcDbLine
 10
20.56367211642168
 20
21.12870991428136
 30
0.0
 11
17.3521551599667
 21
16.97880245770743
 31
0.0
  0
LINE
  5
160
330
1F
100
AcDbEntity
  8
0
100
AcDbLine
 10
12.61936511580487
 20
-4.22906817205087
 30
0.0
 11
11.88461604539792
 21
-4.05613447616081
 31
0.0
  0
LINE
  5
161
330
1F
100
AcDbEntity
  8
0
100
AcDbLine
 10
13.77399448123927
 20
12.41294998480965
 30
0.0
 11
15.56056971887651
 21
10.90760062414626
 31
0.0
  0
LINE
  5
162
330
1F
100
AcDbEntity
  8
0
100
AcDbLine
 10
15.41065893282143
 20
14.43000868314073
 30
0.0
 11
14.64645208108256
 21
13.53436241545564
 31
0.0
  0
LINE
  5
163
330
1F
100
AcDbEntity
  8
0
100
AcDbLine
 10
19.01311976802427
 20
11.24962619027077
 30
0.0
 11
18.49390954206845
 21
11.70718282174442
 31
0.0
  0
LINE
  5
164
330
1F
100
AcDbEntity
  8
0
100
AcDbLine
 10
21.49174613507039
 20
20.79385562751207
 30
0.0
 11
20.90396953438098
 21
21.45644023786248
 31
0.0
  0
LINE
  5
165
330
1F
100
AcDbEntity
  8
0
100
AcDbLine
 10
23.61418174612705
 20
15.12029043502371
 30
0.0
 11
24.53167841879205
 21
17.08147158415013
 31
0.0
  0
LINE
  5
166
330
1F
100
AcDbEntity
  8
0
100
AcDbLine
 10
23.27240205258013
 20
14.17059947313478
 30
0.0
 11
23.61418174612705
 21
15.12029043502371
 31
0.0
  0
LINE
  5
167
330
1F
100
AcDbEntity
  8
0
100
AcDbLine
 10
23.48546636808828
 20
11.79188803469964
 30
0.0
 11
22.97906902421105
 21
11.38594467228309
 31
0.0
  0
LINE
  5
168
330
1F
100
AcDbEntity
  8
0
100
AcDbLine
 10
18.08080728510808
 20
-0.8148809760750814
 30
0.0
 11
17.73233546112627
 21
-1.558843818757075
 31
0.0
  0
LINE
  5
169
330
1F
100
AcDbEntity
  8
0
100
AcDbLine
 10
24.53167841879205
 20
17.08147158415013
 30
0.0
 11
21.49174613507039
 21
20.79385562751207
 31
0.0
  0
LINE
  5
16A
330
1F
100
AcDbEntity
  8
0
100
AcDbLine
 10
22.97906902421105
 20
11.38594467228309
 30
0.0
 11
22.8906728953835
 21
11.68714074356701
 31
0.0
  0
LINE
  5
16B
330
1F
100
AcDbEntity
  8
0
100
AcDbLine
 10
14.29751849823741
 20
-4.192496373373352
 30
0.0
 11
13.43036034855058
 21
-4.273013270898156
 31
0.0
  0
LINE
  5
16C
330
1F
100
AcDbEntity
  8
0
100
AcDbLine
 10
15.10412902431497
 20
-3.980237923933677
 30
0.0
 11
14.29751849823741
 21
-4.192496373373352
 31
0.0
  0
LINE
  5
16D
330
1F
100
AcDbEntity
  8
0
100
AcDbLine
 10
18.65942283230394
 20
5.703066301029269
 30
0.0
 11
18.69742483341343
 21
3.400153175239406
 31
0.0
  0
LINE
  5
16E
330
1F
100
AcDbEntity
  8
0
100
AcDbLine
 10
16.34123825327456
 20
-3.272120816099534
 30
0.0
 11
15.78024978871449
 21
-3.68742251607195
 31
0.0
  0
LINE
  5
16F
330
1F
100
AcDbEntity
  8
0
100
AcDbLine
 10
14.64645208108256
 20
13.53436241545564
 30
0.0
 11
13.77399448123927
 21
12.41294998480965
 31
0.0
  0
LINE
  5
170
330
1F
100
AcDbEntity
  8
0
100
AcDbLine
 10
22.91030535312384
 20
12.35831314483781
 30
0.0
 11
23.04972555468212
 21
13.25387367035687
 31
0.0
  0
LINE
  5
171
330
1F
100
AcDbEntity
  8
0
100
AcDbLine
 10
26.51551573049773
 20
14.57212160077362
 30
0.0
 11
26.1346862635242
 21
14.63964603750178
 31
0.0
  0
LINE
  5
172
330
1F
100
AcDbEntity
  8
0
100
AcDbLine
 10
27.29301198609701
 20
13.68559917431198
 30
0.0
 11
26.51551573049773
 21
14.57212160077362
 31
0.0
  0
LINE
  5
173
330
1F
100
AcDbEntity
  8
0
100
AcDbLine
 10
28.17320883633687
 20
12.50664408140791
 30
0.0
 11
27.29301198609701
 21
13.68559917431198
 31
0.0
  0
LINE
  5
174
330
1F
100
AcDbEntity
  8
0
100
AcDbLine
 10
8.54232172674204
 20
-1.716357817744145
 30
0.0
 11
7.787654196060609
 21
-0.6885284429574962
 31
0.0
  0
LINE
  5
175
330
1F
100
AcDbEntity
  8
0
100
AcDbLine
 10
9.28844327463342
 20
-2.505305592484409
 30
0.0
 11
8.54232172674204
 21
-1.716357817744145
 31
0.0
  0
LINE
  5
176
330
1F
100
AcDbEntity
  8
0
100
AcDbLine
 10
26.1346862635242
 20
14.63964603750178
 30
0.0
 11
25.53955166712927
 21
14.0641605713144
 31
0.0
  0
LINE
  5
177
330
1F
100
AcDbEntity
  8
0
100
AcDbLine
 10
16.86949598930824
 20
-2.765066412511795
 30
0.0
 11
16.34123825327456
 21
-3.272120816099534
 31
0.0
  0
LINE
  5
178
330
1F
100
AcDbEntity
  8
0
100
AcDbLine
 10
26.6003776302236
 20
11.19867169592184
 30
0.0
 11
28.17320883633687
 21
12.50664408140791
 31
0.0
  0
LINE
  5
179
330
1F
100
AcDbEntity
  8
0
100
AcDbLine
 10
26.0562675996914
 20
10.69288084878099
 30
0.0
 11
26.6003776302236
 21
11.19867169592184
 31
0.0
  0
LINE
  5
17A
330
1F
100
AcDbEntity
  8
0
100
AcDbLine
 10
24.28849103432537
 20
8.059645812029256
 30
0.0
 11
24.91497572771304
 21
9.163827995084306
 31
0.0
  0
LINE
  5
17B
330
1F
100
AcDbEntity
  8
0
100
AcDbLine
 10
25.53955166712927
 20
14.0641605713144
 30
0.0
 11
23.48546636808828
 21
11.79188803469964
 31
0.0
  0
LINE
  5
17C
330
1F
100
AcDbEntity
  8
0
100
AcDbLine
 10
25.54817692542695
 20
10.05933338326063
 30
0.0
 11
26.0562675996914
 21
10.69288084878099
 31
0.0
  0
LINE
  5
17D
330
1F
100
AcDbEntity
  8
0
100
AcDbLine
 10
16.36615314364689
 20
10.083310215284
 30
0.0
 11
17.13471542810529
 21
9.097381907453123
 31
0.0
  0
LINE
  5
17E
330
1F
100
AcDbEntity
  8
0
100
AcDbLine
 10
35.98410792638345
 20
2.894991881221194
 30
0.0
 11
35.63233014125129
 21
1.821325969937099
 31
0.0
  0
LINE
  5
17F
330
1F
100
AcDbEntity
  8
0
100
AcDbLine
 10
40.32931814799401
 20
5.736351125332122
 30
0.0
 11
39.76738164587525
 21
7.153639178758741
 31
0.0
  0
LINE
  5
180
330
1F
100
AcDbEntity
  8
0
100
AcDbLine
 10
41.13729620427787
 20
-4.187584955998991
 30
0.0
 11
41.31429888939125
 21
-2.68261181996889
 31
0.0
  0
LINE
  5
181
330
1F
100
AcDbEntity
  8
0
100
AcDbLine
 10
40.84386879242052
 20
-5.456364925576355
 30
0.0
 11
41.13729620427787
 21
-4.187584955998991
 31
0.0
  0
LINE
  5
182
330
1F
100
AcDbEntity
  8
0
100
AcDbLine
 10
35.93298849459713
 20
-14.56500818423799
 30
0.0
 11
36.83522747807158
 21
-13.52826558782742
 31
0.0
  0
LINE
  5
183
330
1F
100
AcDbEntity
  8
0
100
AcDbLine
 10
29.70227962434811
 20
-4.035484373836257
 30
0.0
 11
28.90830257249737
 21
-4.095009088235868
 31
0.0
  0
LINE
  5
184
330
1F
100
AcDbEntity
  8
0
100
AcDbLine
 10
27.65090488275829
 20
-19.93780792512097
 30
0.0
 11
28.77313133688383
 21
-19.50457442807911
 31
0.0
  0
LINE
  5
185
330
1F
100
AcDbEntity
  8
0
100
AcDbLine
 10
26.41993805642785
 20
-20.30328718453976
 30
0.0
 11
27.65090488275829
 21
-19.93780792512097
 31
0.0
  0
LINE
  5
186
330
1F
100
AcDbEntity
  8
0
100
AcDbLine
 10
23.36744034951066
 20
-20.88112815758586
 30
0.0
 11
25.02303215460159
 21
-20.63607323525109
 31
0.0
  0
LINE
  5
187
330
1F
100
AcDbEntity
  8
0
100
AcDbLine
 10
31.37861968191476
 20
-3.463409889548117
 30
0.0
 11
30.8549118140786
 21
-3.742951324258609
 31
0.0
  0
LINE
  5
188
330
1F
100
AcDbEntity
  8
0
100
AcDbLine
 10
39.92867966448996
 20
-8.245310174700027
 30
0.0
 11
40.47333720271967
 21
-6.786492859858467
 31
0.0
  0
LINE
  5
189
330
1F
100
AcDbEntity
  8
0
100
AcDbLine
 10
41.26443850579392
 20
1.652882577077855
 30
0.0
 11
41.05287128351819
 21
3.153388869648573
 31
0.0
  0
LINE
  5
18A
330
1F
100
AcDbEntity
  8
0
100
AcDbLine
 10
31.89483141220275
 20
-17.93117042896
 30
0.0
 11
32.81598807138754
 21
-17.29583480350197
 31
0.0
  0
LINE
  5
18B
330
1F
100
AcDbEntity
  8
0
100
AcDbLine
 10
36.25510808660881
 20
3.992199802602782
 30
0.0
 11
35.98410792638345
 21
2.894991881221194
 31
0.0
  0
LINE
  5
18C
330
1F
100
AcDbEntity
  8
0
100
AcDbLine
 10
25.44260421692628
 20
-2.666471321455605
 30
0.0
 11
24.96807603825691
 21
-2.087457386424882
 31
0.0
  0
LINE
  5
18D
330
1F
100
AcDbEntity
  8
0
100
AcDbLine
 10
27.23544690722474
 20
-3.840719710407405
 30
0.0
 11
26.5527727374248
 21
-3.563533040652592
 31
0.0
  0
LINE
  5
18E
330
1F
100
AcDbEntity
  8
0
100
AcDbLine
 10
34.12827607642264
 20
13.55689618956547
 30
0.0
 11
35.03325603753221
 21
11.72028465988306
 31
0.0
  0
LINE
  5
18F
330
1F
100
AcDbEntity
  8
0
100
AcDbLine
 10
36.37554592927713
 20
12.54627637013057
 30
0.0
 11
35.23314855895353
 21
13.74811953140605
 31
0.0
  0
LINE
  5
190
330
1F
100
AcDbEntity
  8
0
100
AcDbLine
 10
37.36378603220248
 20
11.3656568378696
 30
0.0
 11
36.37554592927713
 21
12.54627637013057
 31
0.0
  0
LINE
  5
191
330
1F
100
AcDbEntity
  8
0
100
AcDbLine
 10
39.05773047529834
 20
8.649861211798568
 30
0.0
 11
38.22493095597578
 21
10.08851854926414
 31
0.0
  0
LINE
  5
192
330
1F
100
AcDbEntity
  8
0
100
AcDbLine
 10
40.73034202555984
 20
4.415092655141225
 30
0.0
 11
40.32931814799401
 21
5.736351125332122
 31
0.0
  0
LINE
  5
193
330
1F
100
AcDbEntity
  8
0
100
AcDbLine
 10
41.31429888939125
 20
-2.68261181996889
 30
0.0
 11
41.34696675161589
 21
-0.5141964921985983
 31
0.0
  0
LINE
  5
194
330
1F
100
AcDbEntity
  8
0
100
AcDbLine
 10
30.8549118140786
 20
-3.742951324258609
 30
0.0
 11
29.70227962434811
 21
-4.035484373836257
 31
0.0
  0
LINE
  5
195
330
1F
100
AcDbEntity
  8
0
100
AcDbLine
 10
38.41619383616824
 20
-11.29883783152922
 30
0.0
 11
39.21978726485241
 21
-9.824098498927762
 31
0.0
  0
LINE
  5
196
330
1F
100
AcDbEntity
  8
0
100
AcDbLine
 10
35.03325603753221
 20
11.72028465988306
 30
0.0
 11
35.67576090934951
 21
10.18445040923723
 31
0.0
  0
LINE
  5
197
330
1F
100
AcDbEntity
  8
0
100
AcDbLine
 10
35.63233014125129
 20
1.821325969937099
 30
0.0
 11
35.16054800267058
 21
0.7822720890545698
 31
0.0
  0
LINE
  5
198
330
1F
100
AcDbEntity
  8
0
100
AcDbLine
 10
36.83522747807158
 20
-13.52826558782742
 30
0.0
 11
37.64691757958183
 21
-12.5053635051274
 31
0.0
  0
LINE
  5
199
330
1F
100
AcDbEntity
  8
0
100
AcDbLine
 10
33.5095514518352
 20
15.28589540306362
 30
0.0
 11
33.03793917293385
 21
15.60589063230577
 31
0.0
  0
LINE
  5
19A
330
1F
100
AcDbEntity
  8
0
100
AcDbLine
 10
34.92243094297008
 20
-15.56569773757877
 30
0.0
 11
35.93298849459713
 21
-14.56500818423799
 31
0.0
  0
LINE
  5
19B
330
1F
100
AcDbEntity
  8
0
100
AcDbLine
 10
25.02303215460159
 20
-20.63607323525109
 30
0.0
 11
26.41993805642785
 21
-20.30328718453976
 31
0.0
  0
LINE
  5
19C
330
1F
100
AcDbEntity
  8
0
100
AcDbLine
 10
39.76738164587525
 20
7.153639178758741
 30
0.0
 11
39.05773047529834
 21
8.649861211798568
 31
0.0
  0
LINE
  5
19D
330
1F
100
AcDbEntity
  8
0
100
AcDbLine
 10
33.85069662364357
 20
-16.50798393427681
 30
0.0
 11
34.92243094297008
 21
-15.56569773757877
 31
0.0
  0
LINE
  5
19E
330
1F
100
AcDbEntity
  8
0
100
AcDbLine
 10
21.36598418608761
 20
-20.97035055225462
 30
0.0
 11
23.36744034951066
 21
-20.88112815758586
 31
0.0
  0
LINE
  5
19F
330
1F
100
AcDbEntity
  8
0
100
AcDbLine
 10
41.34696675161589
 20
-0.5141964921985983
 30
0.0
 11
41.26443850579392
 21
1.652882577077855
 31
0.0
  0
LINE
  5
1A0
330
1F
100
AcDbEntity
  8
0
100
AcDbLine
 10
33.03793917293385
 20
15.60589063230577
 30
0.0
 11
34.12827607642264
 21
13.55689618956547
 31
0.0
  0
LINE
  5
1A1
330
1F
100
AcDbEntity
  8
0
100
AcDbLine
 10
24.96807603825691
 20
-2.087457386424882
 30
0.0
 11
24.55368651371342
 21
-1.480394823328621
 31
0.0
  0
LINE
  5
1A2
330
1F
100
AcDbEntity
  8
0
100
AcDbLine
 10
32.81353800656391
 20
-2.430551638210751
 30
0.0
 11
32.07589325910941
 21
-3.0134308947464
 31
0.0
  0
LINE
  5
1A3
330
1F
100
AcDbEntity
  8
0
100
AcDbLine
 10
39.21978726485241
 20
-9.824098498927762
 30
0.0
 11
39.92867966448996
 21
-8.245310174700027
 31
0.0
  0
LINE
  5
1A4
330
1F
100
AcDbEntity
  8
0
100
AcDbLine
 10
37.64691757958183
 20
-12.5053635051274
 30
0.0
 11
38.41619383616824
 21
-11.29883783152922
 31
0.0
  0
LINE
  5
1A5
330
1F
100
AcDbEntity
  8
0
100
AcDbLine
 10
33.43429534661111
 20
-1.83173110981643
 30
0.0
 11
32.81353800656391
 21
-2.430551638210751
 31
0.0
  0
LINE
  5
1A6
330
1F
100
AcDbEntity
  8
0
100
AcDbLine
 10
19.36300545032912
 20
-20.92718118911548
 30
0.0
 11
21.36598418608761
 21
-20.97035055225462
 31
0.0
  0
LINE
  5
1A7
330
1F
100
AcDbEntity
  8
0
100
AcDbLine
 10
25.98238155081356
 20
-3.161242780261329
 30
0.0
 11
25.44260421692628
 21
-2.666471321455605
 31
0.0
  0
LINE
  5
1A8
330
1F
100
AcDbEntity
  8
0
100
AcDbLine
 10
36.04369049761866
 20
8.983737608028372
 30
0.0
 11
36.28867811317122
 21
7.960120030041996
 31
0.0
  0
LINE
  5
1A9
330
1F
100
AcDbEntity
  8
0
100
AcDbLine
 10
17.70221385644789
 20
-20.72026635722604
 30
0.0
 11
19.36300545032912
 21
-20.92718118911548
 31
0.0
  0
LINE
  5
1AA
330
1F
100
AcDbEntity
  8
0
100
AcDbLine
 10
26.5527727374248
 20
-3.563533040652592
 30
0.0
 11
25.98238155081356
 21
-3.161242780261329
 31
0.0
  0
LINE
  5
1AB
330
1F
100
AcDbEntity
  8
0
100
AcDbLine
 10
34.21010782665718
 20
14.70231452419628
 30
0.0
 11
33.5095514518352
 21
15.28589540306362
 31
0.0
  0
LINE
  5
1AC
330
1F
100
AcDbEntity
  8
0
100
AcDbLine
 10
35.23314855895353
 20
13.74811953140605
 30
0.0
 11
34.21010782665718
 21
14.70231452419628
 31
0.0
  0
LINE
  5
1AD
330
1F
100
AcDbEntity
  8
0
100
AcDbLine
 10
36.40258003314369
 20
5.06495623660919
 30
0.0
 11
36.25510808660881
 21
3.992199802602782
 31
0.0
  0
LINE
  5
1AE
330
1F
100
AcDbEntity
  8
0
100
AcDbLine
 10
36.28867811317122
 20
7.960120030041996
 30
0.0
 11
36.40290032407729
 21
7.037212526266423
 31
0.0
  0
LINE
  5
1AF
330
1F
100
AcDbEntity
  8
0
100
AcDbLine
 10
33.99892811955188
 20
-1.109760930267048
 30
0.0
 11
33.43429534661111
 21
-1.83173110981643
 31
0.0
  0
LINE
  5
1B0
330
1F
100
AcDbEntity
  8
0
100
AcDbLine
 10
35.16054800267058
 20
0.7822720890545698
 30
0.0
 11
34.59925818415495
 21
-0.2304598948968697
 31
0.0
  0
LINE
  5
1B1
330
1F
100
AcDbEntity
  8
0
100
AcDbLine
 10
36.45708880507667
 20
6.081942893192694
 30
0.0
 11
36.40258003314369
 21
5.06495623660919
 31
0.0
  0
LINE
  5
1B2
330
1F
100
AcDbEntity
  8
0
100
AcDbLine
 10
35.67576090934951
 20
10.18445040923723
 30
0.0
 11
36.04369049761866
 21
8.983737608028372
 31
0.0
  0
LINE
  5
1B3
330
1F
100
AcDbEntity
  8
0
100
AcDbLine
 10
28.90830257249737
 20
-4.095009088235868
 30
0.0
 11
28.04672946645991
 21
-4.034375384067734
 31
0.0
  0
LINE
  5
1B4
330
1F
100
AcDbEntity
  8
0
100
AcDbLine
 10
32.07589325910941
 20
-3.0134308947464
 30
0.0
 11
31.37861968191476
 21
-3.463409889548117
 31
0.0
  0
LINE
  5
1B5
330
1F
100
AcDbEntity
  8
0
100
AcDbLine
 10
36.40290032407729
 20
7.037212526266423
 30
0.0
 11
36.45708880507667
 21
6.081942893192694
 31
0.0
  0
LINE
  5
1B6
330
1F
100
AcDbEntity
  8
0
100
AcDbLine
 10
41.05287128351819
 20
3.153388869648573
 30
0.0
 11
40.73034202555984
 21
4.415092655141225
 31
0.0
  0
LINE
  5
1B7
330
1F
100
AcDbEntity
  8
0
100
AcDbLine
 10
38.22493095597578
 20
10.08851854926414
 30
0.0
 11
37.36378603220248
 21
11.3656568378696
 31
0.0
  0
LINE
  5
1B8
330
1F
100
AcDbEntity
  8
0
100
AcDbLine
 10
40.47333720271967
 20
-6.786492859858467
 30
0.0
 11
40.84386879242052
 21
-5.456364925576355
 31
0.0
  0
LINE
  5
1B9
330
1F
100
AcDbEntity
  8
0
100
AcDbLine
 10
32.81598807138754
 20
-17.29583480350197
 30
0.0
 11
33.85069662364357
 21
-16.50798393427681
 31
0.0
  0
LINE
  5
1BA
330
1F
100
AcDbEntity
  8
0
100
AcDbLine
 10
29.90897305105214
 20
-19.00347853192454
 30
0.0
 11
31.89483141220275
 21
-17.93117042896
 31
0.0
  0
LINE
  5
1BB
330
1F
100
AcDbEntity
  8
0
100
AcDbLine
 10
28.77313133688383
 20
-19.50457442807911
 30
0.0
 11
29.90897305105214
 21
-19.00347853192454
 31
0.0
  0
LINE
  5
1BC
330
1F
100
AcDbEntity
  8
0
100
AcDbLine
 10
34.59925818415495
 20
-0.2304598948968697
 30
0.0
 11
33.99892811955188
 21
-1.109760930267048
 31
0.0
  0
LINE
  5
1BD
330
1F
100
AcDbEntity
  8
0
100
AcDbLine
 10
28.04672946645991
 20
-4.034375384067734
 30
0.0
 11
27.23544690722474
 21
-3.840719710407405
 31
0.0
  0
LINE
  5
1BE
330
1F
100
AcDbEntity
  8
0
100
AcDbLine
 10
22.66004193169473
 20
16.40918509554725
 30
0.0
 11
22.65305143272556
 21
17.01705887273884
 31
0.0
  0
LINE
  5
1BF
330
1F
100
AcDbEntity
  8
0
100
AcDbLine
 10
2.500736703229297
 20
-8.639758352859241
 30
0.0
 11
3.188578557461381
 21
-10.11746928232328
 31
0.0
  0
LINE
  5
1C0
330
1F
100
AcDbEntity
  8
0
100
AcDbLine
 10
21.55038825540651
 20
15.05543728383503
 30
0.0
 11
22.07332712617606
 21
15.36542843170804
 31
0.0
  0
LINE
  5
1C1
330
1F
100
AcDbEntity
  8
0
100
AcDbLine
 10
7.700678849903425
 20
14.38734066473086
 30
0.0
 11
6.702688409500892
 21
13.4157015121019
 31
0.0
  0
LINE
  5
1C2
330
1F
100
AcDbEntity
  8
0
100
AcDbLine
 10
8.828773809877243
 20
15.30727661415056
 30
0.0
 11
8.379079485496478
 21
14.98248080021247
 31
0.0
  0
LINE
  5
1C3
330
1F
100
AcDbEntity
  8
0
100
AcDbLine
 10
19.40696184276416
 20
17.55101970326033
 30
0.0
 11
19.20562597154208
 21
16.97741363961647
 31
0.0
  0
LINE
  5
1C4
330
1F
100
AcDbEntity
  8
0
100
AcDbLine
 10
15.05897939100495
 20
-20.0826214521954
 30
0.0
 11
16.29802973726294
 21
-20.41969426186738
 31
0.0
  0
LINE
  5
1C5
330
1F
100
AcDbEntity
  8
0
100
AcDbLine
 10
2.444573162694028
 20
7.009457172754167
 30
0.0
 11
1.938394361030558
 21
5.709433307832338
 31
0.0
  0
LINE
  5
1C6
330
1F
100
AcDbEntity
  8
0
100
AcDbLine
 10
4.630182559289542
 20
10.99490715202209
 30
0.0
 11
3.822544476337326
 21
9.741827095571677
 31
0.0
  0
LINE
  5
1C7
330
1F
100
AcDbEntity
  8
0
100
AcDbLine
 10
1.543660807633814
 20
-5.908337242023343
 30
0.0
 11
1.946191347115094
 21
-7.229574569888837
 31
0.0
  0
LINE
  5
1C8
330
1F
100
AcDbEntity
  8
0
100
AcDbLine
 10
8.379079485496478
 20
14.98248080021247
 30
0.0
 11
7.700678849903425
 21
14.38734066473086
 31
0.0
  0
LINE
  5
1C9
330
1F
100
AcDbEntity
  8
0
100
AcDbLine
 10
7.742790136868972
 20
13.09944021183093
 30
0.0
 11
8.828773809877243
 21
15.30727661415056
 31
0.0
  0
LINE
  5
1CA
330
1F
100
AcDbEntity
  8
0
100
AcDbLine
 10
7.29451913931022
 20
-15.51480941732573
 30
0.0
 11
9.225045151567269
 21
-17.14101656019032
 31
0.0
  0
LINE
  5
1CB
330
1F
100
AcDbEntity
  8
0
100
AcDbLine
 10
20.9529631735497
 20
14.94299644800184
 30
0.0
 11
21.55038825540651
 21
15.05543728383503
 31
0.0
  0
LINE
  5
1CC
330
1F
100
AcDbEntity
  8
0
100
AcDbLine
 10
6.175780490055647
 20
-14.37029799913694
 30
0.0
 11
7.29451913931022
 21
-15.51480941732573
 31
0.0
  0
LINE
  5
1CD
330
1F
100
AcDbEntity
  8
0
100
AcDbLine
 10
4.063822590785948
 20
-11.61180217328649
 30
0.0
 11
5.06948823210362
 21
-13.0643321153645
 31
0.0
  0
LINE
  5
1CE
330
1F
100
AcDbEntity
  8
0
100
AcDbLine
 10
16.29802973726294
 20
-20.41969426186738
 30
0.0
 11
17.70221385644789
 21
-20.72026635722604
 31
0.0
  0
LINE
  5
1CF
330
1F
100
AcDbEntity
  8
0
100
AcDbLine
 10
12.87416299532658
 20
-19.24979250457849
 30
0.0
 11
15.05897939100495
 21
-20.0826214521954
 31
0.0
  0
LINE
  5
1D0
330
1F
100
AcDbEntity
  8
0
100
AcDbLine
 10
1.938394361030558
 20
5.709433307832338
 30
0.0
 11
1.547648604986874
 21
4.389148182088184
 31
0.0
  0
LINE
  5
1D1
330
1F
100
AcDbEntity
  8
0
100
AcDbLine
 10
0.9556666314391995
 20
1.288646827816623
 30
0.0
 11
0.9198382018880735
 21
-0.9791289664744031
 31
0.0
  0
LINE
  5
1D2
330
1F
100
AcDbEntity
  8
0
100
AcDbLine
 10
22.45870580013581
 20
15.83558093638416
 30
0.0
 11
22.66004193169473
 21
16.40918509554725
 31
0.0
  0
LINE
  5
1D3
330
1F
100
AcDbEntity
  8
0
100
AcDbLine
 10
20.31527951766187
 20
18.33116240356907
 30
0.0
 11
19.79234052769092
 21
18.02117125432519
 31
0.0
  0
LINE
  5
1D4
330
1F
100
AcDbEntity
  8
0
100
AcDbLine
 10
22.07332712617606
 20
15.36542843170804
 30
0.0
 11
22.45870580013581
 21
15.83558093638416
 31
0.0
  0
LINE
  5
1D5
330
1F
100
AcDbEntity
  8
0
100
AcDbLine
 10
0.9198382018880735
 20
-0.9791289664744031
 30
0.0
 11
1.005166381960013
 21
-3.146187279936042
 31
0.0
  0
LINE
  5
1D6
330
1F
100
AcDbEntity
  8
0
100
AcDbLine
 10
3.070885469268335
 20
8.385711943595998
 30
0.0
 11
2.444573162694028
 21
7.009457172754167
 31
0.0
  0
LINE
  5
1D7
330
1F
100
AcDbEntity
  8
0
100
AcDbLine
 10
9.225045151567269
 20
-17.14101656019032
 30
0.0
 11
10.91930878412137
 21
-18.25880627275927
 31
0.0
  0
LINE
  5
1D8
330
1F
100
AcDbEntity
  8
0
100
AcDbLine
 10
1.005166381960013
 20
-3.146187279936042
 30
0.0
 11
1.21964018940813
 21
-4.646658237828917
 31
0.0
  0
LINE
  5
1D9
330
1F
100
AcDbEntity
  8
0
100
AcDbLine
 10
3.822544476337326
 20
9.741827095571677
 30
0.0
 11
3.070885469268335
 21
8.385711943595998
 31
0.0
  0
LINE
  5
1DA
330
1F
100
AcDbEntity
  8
0
100
AcDbLine
 10
1.202693213163461
 20
2.96573939759055
 30
0.0
 11
0.9556666314391995
 21
1.288646827816623
 31
0.0
  0
LINE
  5
1DB
330
1F
100
AcDbEntity
  8
0
100
AcDbLine
 10
1.946191347115094
 20
-7.229574569888837
 30
0.0
 11
2.500736703229297
 21
-8.639758352859241
 31
0.0
  0
LINE
  5
1DC
330
1F
100
AcDbEntity
  8
0
100
AcDbLine
 10
5.06948823210362
 20
-13.0643321153645
 30
0.0
 11
6.175780490055647
 21
-14.37029799913694
 31
0.0
  0
LINE
  5
1DD
330
1F
100
AcDbEntity
  8
0
100
AcDbLine
 10
20.91270467795273
 20
18.44360419404168
 30
0.0
 11
20.31527951766187
 21
18.33116240356907
 31
0.0
  0
LINE
  5
1DE
330
1F
100
AcDbEntity
  8
0
100
AcDbLine
 10
6.702688409500892
 20
13.4157015121019
 30
0.0
 11
5.588079718808702
 21
12.19220489992193
 31
0.0
  0
LINE
  5
1DF
330
1F
100
AcDbEntity
  8
0
100
AcDbLine
 10
19.79234052769092
 20
18.02117125432519
 30
0.0
 11
19.40696184276416
 21
17.55101970326033
 31
0.0
  0
LINE
  5
1E0
330
1F
100
AcDbEntity
  8
0
100
AcDbLine
 10
10.91930878412137
 20
-18.25880627275927
 30
0.0
 11
11.86087034856834
 21
-18.7648100319718
 31
0.0
  0
LINE
  5
1E1
330
1F
100
AcDbEntity
  8
0
100
AcDbLine
 10
1.547648604986874
 20
4.389148182088184
 30
0.0
 11
1.202693213163461
 21
2.96573939759055
 31
0.0
  0
LINE
  5
1E2
330
1F
100
AcDbEntity
  8
0
100
AcDbLine
 10
1.21964018940813
 20
-4.646658237828917
 30
0.0
 11
1.543660807633814
 21
-5.908337242023343
 31
0.0
  0
LINE
  5
1E3
330
1F
100
AcDbEntity
  8
0
100
AcDbLine
 10
11.86087034856834
 20
-18.7648100319718
 30
0.0
 11
12.87416299532658
 21
-19.24979250457849
 31
0.0
  0
LINE
  5
1E4
330
1F
100
AcDbEntity
  8
0
100
AcDbLine
 10
3.188578557461381
 20
-10.11746928232328
 30
0.0
 11
4.063822590785948
 21
-11.61180217328649
 31
0.0
  0
LINE
  5
1E5
330
1F
100
AcDbEntity
  8
0
100
AcDbLine
 10
5.588079718808702
 20
12.19220489992193
 30
0.0
 11
4.630182559289542
 21
10.99490715202209
 31
0.0
  0
ENDSEC
  0
SECTION
  2
OBJECTS
  0
DICTIONARY
  5
C
330
0
100
AcDbDictionary
  3
ACAD_GROUP
350
D
  3
ACAD_LAYOUT
350
1A
  3
ACAD_MATERIAL
350
43
  3
ACAD_MLEADERSTYLE
350
208
  3
ACAD_MLINESTYLE
350
17
  3
ACAD_PLOTSETTINGS
350
19
  3
ACAD_SCALELIST
350
47
  3
ACAD_VISUALSTYLE
350
2A
  3
ACDBHEADERROUNDTRIPXREC
350
1E6
  3
ACDBVARIABLEDICTIONARY
350
206
  0
DICTIONARY
  5
20D
330
8
100
AcDbDictionary
280
     1
  3
ACAD_XREC_ROUNDTRIP
360
20E
  0
DICTIONARY
  5
D
102
{ACAD_REACTORS
330
C
102
}
330
C
100
AcDbDictionary
  0
DICTIONARY
  5
1A
102
{ACAD_REACTORS
330
C
102
}
330
C
100
AcDbDictionary
  0
DICTIONARY
  5
43
102
{ACAD_REACTORS
330
C
102
}
330
C
100
AcDbDictionary
  3
BYBLOCK
350
45
  3
BYLAYER
350
44
  3
GLOBAL
350
46
  0
DICTIONARY
  5
208
102
{ACAD_REACTORS
330
C
102
}
330
C
100
AcDbDictionary
  0
DICTIONARY
  5
17
102
{ACAD_REACTORS
330
C
102
}
330
C
100
AcDbDictionary
  3
STANDARD
350
18
  0
DICTIONARY
  5
19
102
{ACAD_REACTORS
330
C
102
}
330
C
100
AcDbDictionary
  0
DICTIONARY
  5
47
102
{ACAD_REACTORS
330
C
102
}
330
C
100
AcDbDictionary
  3
A0
350
48
  3
A1
350
49
  3
A2
350
4A
  3
A3
350
4B
  3
A4
350
4C
  3
A5
350
4D
  3
A6
350
4E
  3
A7
350
4F
  3
A8
350
50
  3
A9
350
51
  3
B0
350
52
  3
B1
350
53
  3
B2
350
54
  3
B3
350
55
  3
B4
350
56
  3
B5
350
57
  3
B6
350
58
  3
B7
350
59
  3
B8
350
5A
  3
B9
350
5B
  3
C0
350
5C
  3
C1
350
5D
  3
C2
350
5E
  3
C3
350
5F
  3
C4
350
60
  3
C5
350
61
  3
C6
350
62
  3
C7
350
63
  3
C8
350
64
  3
C9
350
65
  3
D0
350
66
  3
D1
350
67
  3
D2
350
68
  0
DICTIONARY
  5
2A
102
{ACAD_REACTORS
330
C
102
}
330
C
100
AcDbDictionary
  3
2DWIREFRAME
350
2F
  3
BASIC
350
32
  3
BRIGHTEN
350
36
  3
COLORCHANGE
350
3A
  3
CONCEPTUAL
350
34
  3
DIM
350
35
  3
EDGECOLOROFF
350
3D
  3
FACEPATTERN
350
39
  3
FLAT
350
2B
  3
FLATWITHEDGES
350
2C
  3
GOURAUD
350
2D
  3
GOURAUDWITHEDGES
350
2E
  3
HIDDEN
350
31
  3
JITTEROFF
350
3B
  3
LINEPATTERN
350
38
  3
OVERHANGOFF
350
3C
  3
REALISTIC
350
33
  3
SHADED
350
42
  3
SHADED_WITH_EDGES
350
41
  3
SHADES_OF_GRAY
350
3E
  3
SKETCHY
350
3F
  3
THICKEN
350
37
  3
WIREFRAME
350
30
  3
X-RAY
350
40
  0
DICTIONARY
  5
1E6
102
{ACAD_REACTORS
330
C
102
}
330
C
100
AcDbDictionary
  3
CEPSNTYPE
350
1EF
  3
DIMSTYLEDATA
350
205
  3
FINGERPRINTGUID
350
1F0
  3
HYPERLINKBASE
350
1E9
  3
INSUNITS
350
1EE
  3
LAYOUTDICT
350
1EB
  3
LWETCUNION
350
1ED
  3
PLOTSETDICT
350
1EC
  3
PSVPSCALE
350
1F2
  3
PUCSBASE
350
1F5
  3
PUCSORGBACK
350
1FB
  3
PUCSORGBOTTOM
350
1F7
  3
PUCSORGFRONT
350
1FA
  3
PUCSORGLEFT
350
1F8
  3
PUCSORGRIGHT
350
1F9
  3
PUCSORGTOP
350
1F6
  3
PUCSORTHOREF
350
1F3
  3
PUCSORTHOVIEW
350
1F4
  3
STYLESHEET
350
1EA
  3
TSTACKALIGN
350
1E7
  3
TSTACKSIZE
350
1E8
  3
UCSBASE
350
1FE
  3
UCSORGBACK
350
204
  3
UCSORGBOTTOM
350
200
  3
UCSORGFRONT
350
203
  3
UCSORGLEFT
350
201
  3
UCSORGRIGHT
350
202
  3
UCSORGTOP
350
1FF
  3
UCSORTHOREF
350
1FC
  3
UCSORTHOVIEW
350
1FD
  3
VERSIONGUID
350
1F1
  0
DICTIONARY
  5
206
102
{ACAD_REACTORS
330
C
102
}
330
C
100
AcDbDictionary
  3
CANNOSCALE
350
20F
  3
DIMASSOC
350
20B
  3
HIDETEXT
350
20C
  3
MSLTSCALE
350
210
  0
XRECORD
  5
20E
102
{ACAD_REACTORS
330
20D
102
}
330
20D
100
AcDbXrecord
102
VTR_0.000_0.000_1.000_1.000_GRIDDISPLAY
 70
     3
102
VTR_0.000_0.000_1.000_1.000_GRIDMAJOR
 70
     5
102
VTR_0.000_0.000_1.000_1.000_DEFAULTLIGHTING
280
     1
102
VTR_0.000_0.000_1.000_1.000_DEFAULTLIGHTINGTYPE
 70
     1
102
VTR_0.000_0.000_1.000_1.000_BRIGHTNESS
141
0.0
102
VTR_0.000_0.000_1.000_1.000_CONTRAST
142
0.0
  0
MATERIAL
  5
45
102
{ACAD_REACTORS
330
43
102
}
102
{ACAD_XDICTIONARY
360
213
102
}
330
43
100
AcDbMaterial
  1
BYBLOCK
  0
MATERIAL
  5
44
102
{ACAD_REACTORS
330
43
102
}
102
{ACAD_XDICTIONARY
360
211
102
}
330
43
100
AcDbMaterial
  1
BYLAYER
  0
MATERIAL
  5
46
102
{ACAD_REACTORS
330
43
102
}
102
{ACAD_XDICTIONARY
360
215
102
}
330
43
100
AcDbMaterial
  1
GLOBAL
  0
MLINESTYLE
  5
18
102
{ACAD_REACTORS
330
17
102
}
330
17
100
AcDbMlineStyle
  2
Standard
 70
     0
  3

 62
   256
 51
90.0
 52
90.0
 71
     2
 49
0.5
 62
   256
  6
BYLAYER
 49
-0.5
 62
   256
  6
BYLAYER
  0
ACAD_PROXY_OBJECT
  5
48
102
{ACAD_REACTORS
330
47
102
}
330
47
100
AcDbProxyObject
 90
      499
 91
      503
 93
       41
310
903313A31580
  0
ACAD_PROXY_OBJECT
  5
49
102
{ACAD_REACTORS
330
47
102
}
330
47
100
AcDbProxyObject
 90
      499
 91
      503
 93
      105
310
903313A324000000000000004000
  0
ACAD_PROXY_OBJECT
  5
4A
102
{ACAD_REACTORS
330
47
102
}
330
47
100
AcDbProxyObject
 90
      499
 91
      503
 93
      105
310
903313A344000000000000104000
  0
ACAD_PROXY_OBJECT
  5
4B
102
{ACAD_REACTORS
330
47
102
}
330
47
100
AcDbProxyObject
 90
      499
 91
      503
 93
      105
310
903313A354000000000000144000
  0
ACAD_PROXY_OBJECT
  5
4C
102
{ACAD_REACTORS
330
47
102
}
330
47
100
AcDbProxyObject
 90
      499
 91
      503
 93
      105
310
903313A384000000000000204000
  0
ACAD_PROXY_OBJECT
  5
4D
102
{ACAD_REACTORS
330
47
102
}
330
47
100
AcDbProxyObject
 90
      499
 91
      503
 93
      113
310
904313A31304000000000000244000
  0
ACAD_PROXY_OBJECT
  5
4E
102
{ACAD_REACTORS
330
47
102
}
330
47
100
AcDbProxyObject
 90
      499
 91
      503
 93
      113
310
904313A31364000000000000304000
  0
ACAD_PROXY_OBJECT
  5
4F
102
{ACAD_REACTORS
330
47
102
}
330
47
100
AcDbProxyObject
 90
      499
 91
      503
 93
      113
310
904313A32304000000000000344000
  0
ACAD_PROXY_OBJECT
  5
50
102
{ACAD_REACTORS
330
47
102
}
330
47
100
AcDbProxyObject
 90
      499
 91
      503
 93
      113
310
904313A333040000000000003E4000
  0
ACAD_PROXY_OBJECT
  5
51
102
{ACAD_REACTORS
330
47
102
}
330
47
100
AcDbProxyObject
 90
      499
 91
      503
 93
      113
310
904313A34304000000000000444000
  0
ACAD_PROXY_OBJECT
  5
52
102
{ACAD_REACTORS
330
47
102
}
330
47
100
AcDbProxyObject
 90
      499
 91
      503
 93
      113
310
904313A35304000000000000494000
  0
ACAD_PROXY_OBJECT
  5
53
102
{ACAD_REACTORS
330
47
102
}
330
47
100
AcDbProxyObject
 90
      499
 91
      503
 93
      121
310
905313A3130304000000000000594000
  0
ACAD_PROXY_OBJECT
  5
54
102
{ACAD_REACTORS
330
47
102
}
330
47
100
AcDbProxyObject
 90
      499
 91
      503
 93
      105
310
903323A310000000000000010100
  0
ACAD_PROXY_OBJECT
  5
55
102
{ACAD_REACTORS
330
47
102
}
330
47
100
AcDbProxyObject
 90
      499
 91
      503
 93
      105
310
903343A310000000000000410100
  0
ACAD_PROXY_OBJECT
  5
56
102
{ACAD_REACTORS
330
47
102
}
330
47
100
AcDbProxyObject
 90
      499
 91
      503
 93
      105
310
903383A310000000000000810100
  0
ACAD_PROXY_OBJECT
  5
57
102
{ACAD_REACTORS
330
47
102
}
330
47
100
AcDbProxyObject
 90
      499
 91
      503
 93
      113
310
90431303A310000000000000910100
  0
ACAD_PROXY_OBJECT
  5
58
102
{ACAD_REACTORS
330
47
102
}
330
47
100
AcDbProxyObject
 90
      499
 91
      503
 93
      121
310
9053130303A310000000000001650100
  0
ACAD_PROXY_OBJECT
  5
59
102
{ACAD_REACTORS
330
47
102
}
330
47
100
AcDbProxyObject
 90
      499
 91
      503
 93
      257
310
90E312F31323822203D2031272D3022000000000000200FC000000000000284000
  0
ACAD_PROXY_OBJECT
  5
5A
102
{ACAD_REACTORS
330
47
102
}
330
47
100
AcDbProxyObject
 90
      499
 91
      503
 93
      249
310
90D312F363422203D2031272D3022000000000000240FC000000000000284000
  0
ACAD_PROXY_OBJECT
  5
5B
102
{ACAD_REACTORS
330
47
102
}
330
47
100
AcDbProxyObject
 90
      499
 91
      503
 93
      249
310
90D312F333222203D2031272D3022000000000000280FC000000000000284000
  0
ACAD_PROXY_OBJECT
  5
5C
102
{ACAD_REACTORS
330
47
102
}
330
47
100
AcDbProxyObject
 90
      499
 91
      503
 93
      249
310
90D312F313622203D2031272D30220000000000002C0FC000000000000284000
  0
ACAD_PROXY_OBJECT
  5
5D
102
{ACAD_REACTORS
330
47
102
}
330
47
100
AcDbProxyObject
 90
      499
 91
      503
 93
      249
310
90D332F333222203D2031272D30220000000000002E0FC000000000000284000
  0
ACAD_PROXY_OBJECT
  5
5E
102
{ACAD_REACTORS
330
47
102
}
330
47
100
AcDbProxyObject
 90
      499
 91
      503
 93
      241
310
90C312F3822203D2031272D3022000000000000300FC000000000000284000
  0
ACAD_PROXY_OBJECT
  5
5F
102
{ACAD_REACTORS
330
47
102
}
330
47
100
AcDbProxyObject
 90
      499
 91
      503
 93
      249
310
90D332F313622203D2031272D3022000000000000320FC000000000000284000
  0
ACAD_PROXY_OBJECT
  5
60
102
{ACAD_REACTORS
330
47
102
}
330
47
100
AcDbProxyObject
 90
      499
 91
      503
 93
      241
310
90C312F3422203D2031272D3022000000000000340FC000000000000284000
  0
ACAD_PROXY_OBJECT
  5
61
102
{ACAD_REACTORS
330
47
102
}
330
47
100
AcDbProxyObject
 90
      499
 91
      503
 93
      241
310
90C332F3822203D2031272D3022000000000000360FC000000000000284000
  0
ACAD_PROXY_OBJECT
  5
62
102
{ACAD_REACTORS
330
47
102
}
330
47
100
AcDbProxyObject
 90
      499
 91
      503
 93
      241
310
90C312F3222203D2031272D3022000000000000380FC000000000000284000
  0
ACAD_PROXY_OBJECT
  5
63
102
{ACAD_REACTORS
330
47
102
}
330
47
100
AcDbProxyObject
 90
      499
 91
      503
 93
      241
310
90C332F3422203D2031272D30220000000000003A0FC000000000000284000
  0
ACAD_PROXY_OBJECT
  5
64
102
{ACAD_REACTORS
330
47
102
}
330
47
100
AcDbProxyObject
 90
      499
 91
      503
 93
      161
310
90A3122203D2031272D30224000000000000284000
  0
ACAD_PROXY_OBJECT
  5
65
102
{ACAD_REACTORS
330
47
102
}
330
47
100
AcDbProxyObject
 90
      499
 91
      503
 93
      257
310
90E312D312F3222203D2031272D30220000000000003E0FC000000000000284000
  0
ACAD_PROXY_OBJECT
  5
66
102
{ACAD_REACTORS
330
47
102
}
330
47
100
AcDbProxyObject
 90
      499
 91
      503
 93
      225
310
90A3322203D2031272D302200000000000002100000000000000284000
  0
ACAD_PROXY_OBJECT
  5
67
102
{ACAD_REACTORS
330
47
102
}
330
47
100
AcDbProxyObject
 90
      499
 91
      503
 93
      225
310
90A3622203D2031272D302200000000000006100000000000000284000
  0
ACAD_PROXY_OBJECT
  5
68
102
{ACAD_REACTORS
330
47
102
}
330
47
100
AcDbProxyObject
 90
      499
 91
      503
 93
      249
310
90D31272D3022203D2031272D30220000000000000A100000000000000284000
  0
ACAD_PROXY_OBJECT
  5
2F
102
{ACAD_REACTORS
330
2A
102
}
330
2A
100
AcDbProxyObject
 90
      499
 91
      501
 93
      436
310
42CC9915DA5C99599C985B595049028333333333333E33F0000000000000F90107901411070040501600405405064090741402480A0340
1001
ACAD
1000
AcDbSavedByObjectVersion
1070
     0
  0
ACAD_PROXY_OBJECT
  5
32
102
{ACAD_REACTORS
330
2A
102
}
330
2A
100
AcDbProxyObject
 90
      499
 91
      501
 93
      388
310
4150985CDA58D07406404333333333333E33F0000000000000F90107A41107004050150841D405064090741402480A0350
1001
ACAD
1000
AcDbSavedByObjectVersion
1070
     0
  0
ACAD_PROXY_OBJECT
  5
36
102
{ACAD_REACTORS
330
2A
102
}
330
2A
100
AcDbProxyObject
 90
      499
 91
      501
 93
      428
310
42109C9A59DA1D195B90C409028333333333333E33F0000000000000F9010790141107004050150841D405064090741402480A029950
1001
ACAD
1000
AcDbSavedByObjectVersion
1070
     0
  0
ACAD_PROXY_OBJECT
  5
3A
102
{ACAD_REACTORS
330
2A
102
}
330
2A
100
AcDbProxyObject
 90
      499
 91
      501
 93
      452
310
42D0DBDB1BDC90DA185B99D95104090240C333333333333E33F0000000000000F90108901411070040501508421405064090741402480A0350
1001
ACAD
1000
AcDbSavedByObjectVersion
1070
     0
  0
ACAD_PROXY_OBJECT
  5
34
102
{ACAD_REACTORS
330
2A
102
}
330
2A
100
AcDbProxyObject
 90
      499
 91
      501
 93
      500
310
4290DBDB98D95C1D1D585B10940D028333333333333E33F0000000000000F90107902409070040501000000000018199010841D405064090740C02480A0340
1001
ACAD
1000
AcDbSavedByObjectVersion
1070
     0
  0
ACAD_PROXY_OBJECT
  5
35
102
{ACAD_REACTORS
330
2A
102
}
330
2A
100
AcDbProxyObject
 90
      499
 91
      501
 93
      412
310
40D11A5B50B409028333333333333E33F0000000000000F9010790141107004050150841D405064090741402480A02677FFFFFD0
1001
ACAD
1000
AcDbSavedByObjectVersion
1070
     0
  0
ACAD_PROXY_OBJECT
  5
3D
102
{ACAD_REACTORS
330
2A
102
}
330
2A
100
AcDbProxyObject
 90
      499
 91
      501
 93
      452
310
43115919D950DBDB1BDC93D999916409028333333333333E33F0000000000000F9010790141107004050150841D405064090741402480A0350
1001
ACAD
1000
AcDbSavedByObjectVersion
1070
     0
  0
ACAD_PROXY_OBJECT
  5
39
102
{ACAD_REACTORS
330
2A
102
}
330
2A
100
AcDbProxyObject
 90
      499
 91
      501
 93
      444
310
42D19858D95C185D1D195C9B90F409028333333333333E33F0000000000000F9010790141107004050150841D405064090741402480A0350
1001
ACAD
1000
AcDbSavedByObjectVersion
1070
     0
  0
ACAD_PROXY_OBJECT
  5
2B
102
{ACAD_REACTORS
330
2A
102
}
330
2A
100
AcDbProxyObject
 90
      499
 91
      501
 93
      380
310
41119B185D240901404333333333333E33F0000000000000F9010740A907004050150841D405064090741402480A1B50
1001
ACAD
1000
AcDbSavedByObjectVersion
1070
     0
  0
ACAD_PROXY_OBJECT
  5
2C
102
{ACAD_REACTORS
330
2A
102
}
330
2A
100
AcDbProxyObject
 90
      499
 91
      501
 93
      468
310
43519B185D15DA5D1A115919D95CD0140901404333333333333E33F0000000000000F90107409019070040501600405405064090741402480A1B50
1001
ACAD
1000
AcDbSavedByObjectVersion
1070
     0
  0
ACAD_PROXY_OBJECT
  5
2D
102
{ACAD_REACTORS
330
2A
102
}
330
2A
100
AcDbProxyObject
 90
      499
 91
      501
 93
      404
310
41D1DBDD5C985D5910240902404333333333333E33F0000000000000F9010740A9070040501641D405064090741402480A1B50
1001
ACAD
1000
AcDbSavedByObjectVersion
1070
     0
  0
ACAD_PROXY_OBJECT
  5
2E
102
{ACAD_REACTORS
330
2A
102
}
330
2A
100
AcDbProxyObject
 90
      499
 91
      501
 93
      492
310
4411DBDD5C985D5915DA5D1A115919D95CD0340902404333333333333E33F0000000000000F90107409019070040501600405405064090741402480A1B50
1001
ACAD
1000
AcDbSavedByObjectVersion
1070
     0
  0
ACAD_PROXY_OBJECT
  5
31
102
{ACAD_REACTORS
330
2A
102
}
330
2A
100
AcDbProxyObject
 90
      499
 91
      501
 93
      476
310
41921A5919195B90640502408333333333333E33F0000000000000F901079024090700405020000000000001110200405405064090740C02480A0340
1001
ACAD
1000
AcDbSavedByObjectVersion
1070
     0
  0
ACAD_PROXY_OBJECT
  5
3B
102
{ACAD_REACTORS
330
2A
102
}
330
2A
100
AcDbProxyObject
 90
      499
 91
      501
 93
      428
310
42529A5D1D195C93D999914409028333333333333E33F0000000000000F9010790141107004050150A41D405064090741402480A0350
1001
ACAD
1000
AcDbSavedByObjectVersion
1070
     0
  0
ACAD_PROXY_OBJECT
  5
38
102
{ACAD_REACTORS
330
2A
102
}
330
2A
100
AcDbProxyObject
 90
      499
 91
      501
 93
      444
310
42D31A5B995C185D1D195C9B90E409028333333333333E33F0000000000000F9010790141107004050750841D405064090741402483A0350
1001
ACAD
1000
AcDbSavedByObjectVersion
1070
     0
  0
ACAD_PROXY_OBJECT
  5
3C
102
{ACAD_REACTORS
330
2A
102
}
330
2A
100
AcDbProxyObject
 90
      499
 91
      501
 93
      444
310
42D3DD995C9A185B99D3D999915409028333333333333E33F0000000000000F9010790141107004050150941D405064090741402480A0350
1001
ACAD
1000
AcDbSavedByObjectVersion
1070
     0
  0
ACAD_PROXY_OBJECT
  5
33
102
{ACAD_REACTORS
330
2A
102
}
330
2A
100
AcDbProxyObject
 90
      499
 91
      501
 93
      428
310
425499585B1A5CDD1A58D08409038333333333333E33F0000000000000F9010740A907004050150800405405064090740C02480A1B40
1001
ACAD
1000
AcDbSavedByObjectVersion
1070
     0
  0
ACAD_PROXY_OBJECT
  5
42
102
{ACAD_REACTORS
330
2A
102
}
330
2A
100
AcDbProxyObject
 90
      499
 91
      501
 93
      420
310
4194DA1859195911B40902404333333333333E33F0000000000000F9010740A41107004050150800405405064090840C02480A0B40
1001
ACAD
1000
AcDbSavedByObjectVersion
1070
     0
  0
ACAD_PROXY_OBJECT
  5
41
102
{ACAD_REACTORS
330
2A
102
}
330
2A
100
AcDbProxyObject
 90
      499
 91
      501
 93
      516
310
4454DA18591959081DDA5D1A08195919D95CD1A40902404333333333333E33F0000000000000F901074090142907004050250800405405064090740C02480A0B40
1001
ACAD
1000
AcDbSavedByObjectVersion
1070
     0
  0
ACAD_PROXY_OBJECT
  5
3E
102
{ACAD_REACTORS
330
2A
102
}
330
2A
100
AcDbProxyObject
 90
      499
 91
      501
 93
      532
310
4394DA1859195CC81BD98811DC985E5174090240C333333333333E33F0000000000000F901079024090741D01000000000000111010841D405064090740C02480A0340
1001
ACAD
1000
AcDbSavedByObjectVersion
1070
     0
  0
ACAD_PROXY_OBJECT
  5
3F
102
{ACAD_REACTORS
330
2A
102
}
330
2A
100
AcDbProxyObject
 90
      499
 91
      501
 93
      476
310
41D4DAD95D18DA1E51840502408333333333333E33F0000000000000F901079024090741D01000000000000111010B41D405064090741802480A0340
1001
ACAD
1000
AcDbSavedByObjectVersion
1070
     0
  0
ACAD_PROXY_OBJECT
  5
37
102
{ACAD_REACTORS
330
2A
102
}
330
2A
100
AcDbProxyObject
 90
      499
 91
      501
 93
      412
310
41D51A1A58DAD95B90D409028333333333333E33F0000000000000F9010790141107004050150C41D405064090741402480A0350
1001
ACAD
1000
AcDbSavedByObjectVersion
1070
     0
  0
ACAD_PROXY_OBJECT
  5
30
102
{ACAD_REACTORS
330
2A
102
}
330
2A
100
AcDbProxyObject
 90
      499
 91
      501
 93
      420
310
4255DA5C99599C985B595059028333333333333E33F0000000000000F90107901411070040501600405405064090740C02480A0340
1001
ACAD
1000
AcDbSavedByObjectVersion
1070
     0
  0
ACAD_PROXY_OBJECT
  5
40
102
{ACAD_REACTORS
330
2A
102
}
330
2A
100
AcDbProxyObject
 90
      499
 91
      501
 93
      404
310
41560B54985E51940902404000000000000E03F0000000000000F9010740501907004050150841D405064090740C02480A1B40
1001
ACAD
1000
AcDbSavedByObjectVersion
1070
     0
  0
XRECORD
  5
1EF
102
{ACAD_REACTORS
330
1E6
102
}
330
1E6
100
AcDbXrecord
 90
        0
  0
XRECORD
  5
205
102
{ACAD_REACTORS
330
1E6
102
}
330
1E6
100
AcDbXrecord
1000
DSTYLE
1002
{
1070
   171
 70
     2
1070
   143
 40
25.4
1070
   274
 70
     2
1070
    41
 40
0.18
1070
   141
 40
0.09
1070
   271
 70
     4
1070
    43
 40
0.38
1070
   278
 70
    46
1070
    44
 40
0.18
1070
    42
 40
0.0625
1070
   147
 40
0.09
1070
    77
 70
     0
1070
   272
 70
     4
1070
    73
 70
     1
1070
   172
 70
     0
1070
    74
 70
     1
1070
   283
 70
     1
1070
   340
340
11
1070
   140
 40
0.18
1070
   284
 70
     0
1070
    78
 70
     0
1002
}
  0
XRECORD
  5
1F0
102
{ACAD_REACTORS
330
1E6
102
}
330
1E6
100
AcDbXrecord
  1
{F1F3444B-0652-45D6-85FA-2711643A84C8}
  0
XRECORD
  5
1E9
102
{ACAD_REACTORS
330
1E6
102
}
330
1E6
100
AcDbXrecord
  1

  0
XRECORD
  5
1EE
102
{ACAD_REACTORS
330
1E6
102
}
330
1E6
100
AcDbXrecord
 90
        4
  0
XRECORD
  5
1EB
102
{ACAD_REACTORS
330
1E6
102
}
330
1E6
100
AcDbXrecord
340
1A
  0
XRECORD
  5
1ED
102
{ACAD_REACTORS
330
1E6
102
}
330
1E6
100
AcDbXrecord
 90
    10781
  0
XRECORD
  5
1EC
102
{ACAD_REACTORS
330
1E6
102
}
330
1E6
100
AcDbXrecord
340
19
  0
XRECORD
  5
1F2
102
{ACAD_REACTORS
330
1E6
102
}
330
1E6
100
AcDbXrecord
 40
0.0
  0
XRECORD
  5
1F5
102
{ACAD_REACTORS
330
1E6
102
}
330
1E6
100
AcDbXrecord
340
0
  0
XRECORD
  5
1FB
102
{ACAD_REACTORS
330
1E6
102
}
330
1E6
100
AcDbXrecord
 10
0.0
 20
0.0
 30
0.0
  0
XRECORD
  5
1F7
102
{ACAD_REACTORS
330
1E6
102
}
330
1E6
100
AcDbXrecord
 10
0.0
 20
0.0
 30
0.0
  0
XRECORD
  5
1FA
102
{ACAD_REACTORS
330
1E6
102
}
330
1E6
100
AcDbXrecord
 10
0.0
 20
0.0
 30
0.0
  0
XRECORD
  5
1F8
102
{ACAD_REACTORS
330
1E6
102
}
330
1E6
100
AcDbXrecord
 10
0.0
 20
0.0
 30
0.0
  0
XRECORD
  5
1F9
102
{ACAD_REACTORS
330
1E6
102
}
330
1E6
100
AcDbXrecord
 10
0.0
 20
0.0
 30
0.0
  0
XRECORD
  5
1F6
102
{ACAD_REACTORS
330
1E6
102
}
330
1E6
100
AcDbXrecord
 10
0.0
 20
0.0
 30
0.0
  0
XRECORD
  5
1F3
102
{ACAD_REACTORS
330
1E6
102
}
330
1E6
100
AcDbXrecord
340
0
  0
XRECORD
  5
1F4
102
{ACAD_REACTORS
330
1E6
102
}
330
1E6
100
AcDbXrecord
 70
     0
  0
XRECORD
  5
1EA
102
{ACAD_REACTORS
330
1E6
102
}
330
1E6
100
AcDbXrecord
  1

  0
XRECORD
  5
1E7
102
{ACAD_REACTORS
330
1E6
102
}
330
1E6
100
AcDbXrecord
 90
        1
  0
XRECORD
  5
1E8
102
{ACAD_REACTORS
330
1E6
102
}
330
1E6
100
AcDbXrecord
 90
       70
  0
XRECORD
  5
1FE
102
{ACAD_REACTORS
330
1E6
102
}
330
1E6
100
AcDbXrecord
340
0
  0
XRECORD
  5
204
102
{ACAD_REACTORS
330
1E6
102
}
330
1E6
100
AcDbXrecord
 10
0.0
 20
0.0
 30
0.0
  0
XRECORD
  5
200
102
{ACAD_REACTORS
330
1E6
102
}
330
1E6
100
AcDbXrecord
 10
0.0
 20
0.0
 30
0.0
  0
XRECORD
  5
203
102
{ACAD_REACTORS
330
1E6
102
}
330
1E6
100
AcDbXrecord
 10
0.0
 20
0.0
 30
0.0
  0
XRECORD
  5
201
102
{ACAD_REACTORS
330
1E6
102
}
330
1E6
100
AcDbXrecord
 10
0.0
 20
0.0
 30
0.0
  0
XRECORD
  5
202
102
{ACAD_REACTORS
330
1E6
102
}
330
1E6
100
AcDbXrecord
 10
0.0
 20
0.0
 30
0.0
  0
XRECORD
  5
1FF
102
{ACAD_REACTORS
330
1E6
102
}
330
1E6
100
AcDbXrecord
 10
0.0
 20
0.0
 30
0.0
  0
XRECORD
  5
1FC
102
{ACAD_REACTORS
330
1E6
102
}
330
1E6
100
AcDbXrecord
340
0
  0
XRECORD
  5
1FD
102
{ACAD_REACTORS
330
1E6
102
}
330
1E6
100
AcDbXrecord
 70
     0
  0
XRECORD
  5
1F1
102
{ACAD_REACTORS
330
1E6
102
}
330
1E6
100
AcDbXrecord
  1
{FAEB1C32-E019-11D5-929B-00C0DF256EC4}
  0
DICTIONARYVAR
  5
20F
102
{ACAD_REACTORS
330
206
102
}
330
206
100
DictionaryVariables
280
     0
  1
1:1
  0
DICTIONARYVAR
  5
20B
102
{ACAD_REACTORS
330
206
102
}
330
206
100
DictionaryVariables
280
     0
  1
2
  0
DICTIONARYVAR
  5
20C
102
{ACAD_REACTORS
330
206
102
}
330
206
100
DictionaryVariables
280
     0
  1
1
  0
DICTIONARYVAR
  5
210
102
{ACAD_REACTORS
330
206
102
}
330
206
100
DictionaryVariables
280
     0
  1
1
  0
DICTIONARY
  5
213
330
45
100
AcDbDictionary
280
     1
  3
ACAD_XREC_ROUNDTRIP
360
214
  0
DICTIONARY
  5
211
330
44
100
AcDbDictionary
280
     1
  3
ACAD_XREC_ROUNDTRIP
360
212
  0
DICTIONARY
  5
215
330
46
100
AcDbDictionary
280
     1
  3
ACAD_XREC_ROUNDTRIP
360
216
  0
XRECORD
  5
214
102
{ACAD_REACTORS
330
213
102
}
330
213
100
AcDbXrecord
102
MATERIAL
148
0.0
149
0.0
149
0.0
 93
        0
 94
      127
282
     0
 72
     1
 77
     1
171
     1
175
     1
179
     1
273
     0
  0
XRECORD
  5
212
102
{ACAD_REACTORS
330
211
102
}
330
211
100
AcDbXrecord
102
MATERIAL
148
0.0
149
0.0
149
0.0
 93
        0
 94
      127
282
     0
 72
     1
 77
     1
171
     1
175
     1
179
     1
273
     0
  0
XRECORD
  5
216
102
{ACAD_REACTORS
330
215
102
}
330
215
100
AcDbXrecord
102
MATERIAL
148
0.0
149
0.0
149
0.0
 93
        0
 94
      127
282
     0
 72
     1
 77
     1
171
     1
175
     1
179
     1
273
     0
  0
ENDSEC
  0
EOF
